<svg width="24" height="25" viewBox="0 0 24 25" fill="none" xmlns="http://www.w3.org/2000/svg">
<path fill-rule="evenodd" clip-rule="evenodd" d="M13.9365 3C13.9365 2.9337 13.9102 2.87011 13.8633 2.82322C13.8164 2.77634 13.7528 2.75 13.6865 2.75H6.68652C5.95718 2.75 5.2577 3.03973 4.74198 3.55546C4.22625 4.07118 3.93652 4.77065 3.93652 5.5V19.5C3.93652 20.2293 4.22625 20.9288 4.74198 21.4445C5.2577 21.9603 5.95718 22.25 6.68652 22.25H16.6865C17.4159 22.25 18.1153 21.9603 18.6311 21.4445C19.1468 20.9288 19.4365 20.2293 19.4365 19.5V9.647C19.4365 9.5807 19.4102 9.51711 19.3633 9.47022C19.3164 9.42334 19.2528 9.397 19.1865 9.397H14.6865C14.4876 9.397 14.2968 9.31798 14.1562 9.17733C14.0155 9.03668 13.9365 8.84591 13.9365 8.647V3ZM14.6865 12.75C14.8854 12.75 15.0762 12.829 15.2169 12.9697C15.3575 13.1103 15.4365 13.3011 15.4365 13.5C15.4365 13.6989 15.3575 13.8897 15.2169 14.0303C15.0762 14.171 14.8854 14.25 14.6865 14.25H8.68652C8.48761 14.25 8.29685 14.171 8.15619 14.0303C8.01554 13.8897 7.93652 13.6989 7.93652 13.5C7.93652 13.3011 8.01554 13.1103 8.15619 12.9697C8.29685 12.829 8.48761 12.75 8.68652 12.75H14.6865ZM14.6865 16.75C14.8854 16.75 15.0762 16.829 15.2169 16.9697C15.3575 17.1103 15.4365 17.3011 15.4365 17.5C15.4365 17.6989 15.3575 17.8897 15.2169 18.0303C15.0762 18.171 14.8854 18.25 14.6865 18.25H8.68652C8.48761 18.25 8.29685 18.171 8.15619 18.0303C8.01554 17.8897 7.93652 17.6989 7.93652 17.5C7.93652 17.3011 8.01554 17.1103 8.15619 16.9697C8.29685 16.829 8.48761 16.75 8.68652 16.75H14.6865Z" fill="#6FA0FE"/>
<path d="M15.3398 3.51493C15.3398 3.33476 15.5278 3.2202 15.6671 3.33281C15.7849 3.42876 15.8911 3.54039 15.9817 3.66768L18.9161 7.77724C18.9823 7.87124 18.9102 7.99266 18.7953 7.99266H15.5833C15.5187 7.99266 15.4568 7.96687 15.4112 7.92096C15.3655 7.87505 15.3398 7.81279 15.3398 7.74787V3.51493Z" fill="#6FA0FE"/>
</svg>
