<svg width="121" height="25" viewBox="0 0 121 25" fill="none" xmlns="http://www.w3.org/2000/svg">
<g id="Group">
<path id="Vector" d="M96.3035 1.17188V5.67864H85.4451V10.3435H95.1966V14.6395H85.4451V19.3307H96.6461V23.7848H80.5693V1.17188H96.3035Z" fill="url(#paint0_linear_4880_25754)"/>
<path id="Vector_2" d="M112.171 24.0221L110.168 19.6735C109.048 19.8728 107.897 19.7917 106.816 19.4376C105.735 19.0835 104.759 18.4674 103.974 17.6441C102.654 16.2533 101.919 14.4091 101.919 12.4917C101.919 10.5743 102.654 8.72997 103.974 7.33918C104.614 6.66479 105.385 6.12774 106.239 5.76073C107.093 5.39373 108.013 5.20446 108.942 5.20446C109.872 5.20446 110.792 5.39373 111.646 5.76073C112.5 6.12774 113.27 6.66479 113.91 7.33918C114.711 8.18126 115.305 9.19871 115.643 10.3105C115.982 11.4224 116.056 12.5979 115.861 13.7435L120.051 15.8256C120.632 13.773 120.668 11.6045 120.155 9.53396C119.642 7.46341 118.598 5.56238 117.126 4.0184C116.072 2.90696 114.803 2.02179 113.396 1.41688C111.989 0.811969 110.474 0.5 108.942 0.5C107.411 0.5 105.895 0.811969 104.489 1.41688C103.082 2.02179 101.813 2.90696 100.759 4.0184C98.5885 6.31088 97.3789 9.34786 97.3789 12.5048C97.3789 15.6618 98.5885 18.6988 100.759 20.9913C102.194 22.5035 104.021 23.5876 106.036 24.1228C108.051 24.6579 110.175 24.6231 112.171 24.0221Z" fill="url(#paint1_radial_4880_25754)"/>
<path id="Vector_3" d="M108.506 15.1392L111.51 12.0293L120.366 21.2273L117.388 24.3109L108.506 15.1392Z" fill="url(#paint2_linear_4880_25754)"/>
<path id="Vector_4" d="M60.6964 15.4037C60.6964 10.3434 64.0435 7.10173 68.603 7.10173C70.6324 7.10173 72.4245 7.78697 73.6369 9.28922V0.960938H77.3003V23.4948H73.795V21.4127C72.5563 22.9677 70.7378 23.732 68.603 23.732C64.0699 23.732 60.6964 20.4639 60.6964 15.4037ZM64.3598 15.4037C64.3598 18.4872 66.3891 20.4639 69.0247 20.4639C71.6866 20.4639 73.6896 18.4872 73.6896 15.4037C73.6896 12.2937 71.6602 10.3434 69.0247 10.3434C66.3891 10.3434 64.3598 12.3201 64.3598 15.4037ZM42.7747 16.5369V7.28622H46.4381V16.0362C46.4381 18.988 47.7822 20.3848 50.1015 20.3848C52.658 20.3848 54.3711 18.7508 54.3711 15.4827V7.28622H58.0345V23.4948H54.5556V21.4391C53.3959 22.9413 51.5511 23.7056 49.5217 23.7056C45.5157 23.7056 42.7747 21.439 42.7747 16.5369ZM23.588 15.4037C23.588 10.5279 27.0933 7.10173 31.9163 7.10173C36.7394 7.10173 40.271 10.5279 40.271 15.4037C40.271 20.2794 36.7657 23.7056 31.9163 23.7056C27.0669 23.7056 23.588 20.2531 23.588 15.4037ZM27.2778 15.4037C27.2778 18.4872 29.2808 20.4639 31.9163 20.4639C34.5519 20.4639 36.5812 18.4872 36.5812 15.4037C36.5812 12.2937 34.5782 10.3434 31.9163 10.3434C29.2544 10.3434 27.2778 12.3201 27.2778 15.4037ZM0 15.4037C0 10.5279 3.50529 7.10173 8.46009 7.10173C11.5173 7.10173 13.942 8.4195 15.1543 10.8705L12.3343 12.5836C11.9466 11.8932 11.3794 11.3204 10.6927 10.926C10.006 10.5317 9.22547 10.3304 8.43371 10.3434C5.74547 10.3434 3.68975 12.2937 3.68975 15.4037C3.68975 18.5136 5.74547 20.4639 8.43371 20.4639C9.98868 20.4639 11.3855 19.7523 12.3343 18.2237L15.1543 19.9368C13.942 22.3351 11.5173 23.7056 8.46009 23.7056C3.50529 23.7056 0 20.2531 0 15.4037ZM17.2891 23.4948V0.960938H20.9525V23.4948H17.2891Z" fill="black"/>
</g>
<defs>
<linearGradient id="paint0_linear_4880_25754" x1="97.5142" y1="13.9708" x2="83.3966" y2="13.4558" gradientUnits="userSpaceOnUse">
<stop/>
<stop offset="0.28" stop-color="#041E50"/>
<stop offset="0.47" stop-color="#0A42AD"/>
<stop offset="0.61" stop-color="#0F61FE"/>
<stop offset="1" stop-color="#33B0FF"/>
</linearGradient>
<radialGradient id="paint1_radial_4880_25754" cx="0" cy="0" r="1" gradientUnits="userSpaceOnUse" gradientTransform="translate(100.849 4.88089) scale(19.6654 19.38)">
<stop/>
<stop offset="0.388" stop-color="#0A42AD"/>
<stop offset="0.581" stop-color="#0F61FE"/>
<stop offset="0.802" stop-color="#33B0FF"/>
<stop offset="1" stop-color="#33B0FF"/>
</radialGradient>
<linearGradient id="paint2_linear_4880_25754" x1="109.312" y1="12.4714" x2="118.514" y2="21.2628" gradientUnits="userSpaceOnUse">
<stop/>
<stop offset="0.187" stop-color="#010816"/>
<stop offset="0.22" stop-color="#041E50"/>
<stop offset="0.43" stop-color="#0A42AD"/>
<stop offset="0.6" stop-color="#0F61FD"/>
<stop offset="1" stop-color="#33B0FF"/>
</linearGradient>
</defs>
</svg>
