<svg width="114" height="94" viewBox="0 0 114 94" fill="none" xmlns="http://www.w3.org/2000/svg">
<g id="Empty folder">
<path id="path44" d="M37.9556 12.4461V3.49821C37.9556 1.56606 36.6095 0.000167847 34.9503 0.000167847H3.53906C1.87829 0.000167847 0.532227 1.56606 0.532227 3.49821V16.1004V29.1347V93.385H99.4943V22.5262C99.4943 18.9779 97.0219 16.1004 93.973 16.1004H41.0964C39.3624 16.1004 37.9556 14.4646 37.9556 12.4461Z" fill="#DEDEDE"/>
<g id="g46">
<path id="path48" d="M0.5 93.3853H99.4611L113.359 31.9048C114.061 28.7996 112.048 25.7615 109.289 25.7615H19.0315C17.119 25.7615 15.447 27.2617 14.961 29.4129L0.5 93.3853Z" fill="#F2F2F2"/>
</g>
<path id="path56" d="M65.0031 70.0989H59.9071L56.5864 62.1361L50.1148 70.0989H45.335L54.4662 59.2418L49.9451 49.0473H54.87L57.9073 56.6209L63.8547 49.0473H68.6633L59.9892 59.4865L65.0031 70.0989Z" fill="white"/>
</g>
</svg>
