<svg width="16" height="17" viewBox="0 0 16 17" fill="none" xmlns="http://www.w3.org/2000/svg">
<g clip-path="url(#clip0_2258_9068)">
<path d="M11.5 5L8 1L4.5 5H6.5V10H9.5V5H11.5Z" stroke="#3D404B" stroke-linecap="round" stroke-linejoin="round"/>
<path d="M12.5 1H14C14.3978 1 14.7794 1.15804 15.0607 1.43934C15.342 1.72064 15.5 2.10218 15.5 2.5V14.5C15.5 14.8978 15.342 15.2794 15.0607 15.5607C14.7794 15.842 14.3978 16 14 16H2C1.60218 16 1.22064 15.842 0.93934 15.5607C0.658035 15.2794 0.5 14.8978 0.5 14.5V2.5C0.5 2.10218 0.658035 1.72064 0.93934 1.43934C1.22064 1.15804 1.60218 1 2 1H3.5" stroke="#3D404B" stroke-linecap="round" stroke-linejoin="round"/>
<path d="M0.5 13H15.5" stroke="#3D404B" stroke-linecap="round" stroke-linejoin="round"/>
</g>
<defs>
<clipPath id="clip0_2258_9068">
<rect width="16" height="16" fill="white" transform="translate(0 0.5)"/>
</clipPath>
</defs>
</svg>
