<svg width="105" height="129" viewBox="0 0 105 129" fill="none" xmlns="http://www.w3.org/2000/svg">
<path d="M104.194 3.8147e-05C101.404 3.8147e-05 99.1424 2.23409 99.1424 4.99V51.0786C99.1424 54.6934 96.1748 57.6265 92.513 57.6265H59.5918V6.18606C59.5918 2.76927 62.3955 3.8147e-05 65.8548 3.8147e-05H104.194Z" fill="#F2F2F2"/>
<path d="M92.5129 57.6257H75.7812V29.8605C75.7812 27.1043 78.0444 24.8708 80.8331 24.8708C82.2274 24.8708 83.4917 25.4283 84.4051 26.3323C85.3186 27.2345 85.8848 28.4815 85.8848 29.8605V51.0791C85.8848 54.6935 88.8517 57.6257 92.5129 57.6257Z" fill="#DEDEDE"/>
<path d="M80.8328 24.8698C78.0429 24.8698 75.7814 27.1035 75.7814 29.8591V122.751C75.7814 124.459 75.0799 126.006 73.9465 127.125C72.813 128.244 71.2476 128.937 69.518 128.937H20.9139C17.4547 128.937 14.6523 126.167 14.6523 122.751V31.0562C14.6523 27.6395 17.4547 24.8698 20.9139 24.8698H80.8328Z" fill="#F2F2F2"/>
<path d="M69.5189 128.938H6.74092C3.28242 128.938 0.477539 126.168 0.477539 122.752V118.959H63.2573V122.752C63.2573 126.168 66.0587 128.938 69.5189 128.938Z" fill="#DEDEDE"/>
<path d="M59.5918 25.0513H80.8344" stroke="#DEDEDE" stroke-width="0.516929" stroke-miterlimit="10"/>
<path d="M53 66.5L44 75.5M35 84.5L44 75.5M44 75.5L35 66.5L53 84.5" stroke="#DEDEDE" stroke-width="1.35849"/>
<path d="M68.3115 82H89.5728L81.8414 93.4545V103H76.0429V93.4545L68.3115 82Z" fill="#D9D9D9" stroke="#D9D9D9" stroke-width="1.90909" stroke-linecap="round" stroke-linejoin="round"/>
</svg>
