<svg width="408" height="282" viewBox="0 0 408 282" fill="none" xmlns="http://www.w3.org/2000/svg">
<path d="M406.919 266.533H0.631836V266.736H406.919V266.533Z" fill="#EBEBEB" fill-opacity="0.2"/>
<path d="M170.106 230.348H13.2059C11.9768 230.346 10.7987 229.857 9.93031 228.988C9.06194 228.12 8.57422 226.942 8.57422 225.715V5.4878C8.58492 4.26754 9.07736 3.10076 9.94458 2.24092C10.8118 1.38107 11.9838 0.897598 13.2059 0.895508H170.106C171.336 0.895508 172.517 1.38361 173.387 2.25244C174.257 3.12127 174.746 4.29966 174.746 5.52837V225.715C174.746 226.944 174.257 228.122 173.387 228.991C172.517 229.86 171.336 230.348 170.106 230.348ZM13.2059 1.05778C12.0306 1.05993 10.9042 1.52761 10.074 2.35817C9.24368 3.18872 8.77736 4.31429 8.77736 5.4878V225.715C8.77736 226.889 9.24368 228.014 10.074 228.845C10.9042 229.675 12.0306 230.143 13.2059 230.145H170.106C171.282 230.143 172.409 229.675 173.241 228.845C174.072 228.015 174.54 226.889 174.543 225.715V5.4878C174.54 4.31354 174.072 3.188 173.241 2.35767C172.409 1.52735 171.282 1.05993 170.106 1.05778H13.2059Z" fill="#EBEBEB" fill-opacity="0.2"/>
<path d="M402.68 230.348H245.772C244.542 230.346 243.363 229.857 242.493 228.989C241.624 228.12 241.134 226.943 241.132 225.715V5.4878C241.145 4.2668 241.639 3.10003 242.507 2.24041C243.376 1.38079 244.549 0.897575 245.772 0.895508H402.68C403.9 0.899731 405.07 1.38415 405.936 2.24377C406.801 3.10338 407.293 4.26894 407.303 5.4878V225.715C407.303 226.941 406.817 228.117 405.95 228.985C405.083 229.854 403.907 230.344 402.68 230.348ZM245.772 1.05778C244.596 1.05993 243.468 1.52735 242.637 2.35767C241.805 3.188 241.337 4.31354 241.335 5.4878V225.715C241.337 226.889 241.805 228.015 242.637 228.845C243.468 229.675 244.596 230.143 245.772 230.145H402.68C403.856 230.143 404.983 229.675 405.815 228.845C406.646 228.015 407.114 226.889 407.116 225.715V5.4878C407.114 4.31354 406.646 3.188 405.815 2.35767C404.983 1.52735 403.856 1.05993 402.68 1.05778H245.772Z" fill="#EBEBEB" fill-opacity="0.2"/>
<path d="M140.401 274.259H119.274V274.462H140.401V274.259Z" fill="#EBEBEB" fill-opacity="0.2"/>
<path d="M64.1107 272.059H20.1504V272.262H64.1107V272.059Z" fill="#EBEBEB" fill-opacity="0.2"/>
<path d="M152.154 281.797H130.767V282H152.154V281.797Z" fill="#EBEBEB" fill-opacity="0.2"/>
<path d="M252.605 280.435H221.053V280.638H252.605V280.435Z" fill="#EBEBEB" fill-opacity="0.2"/>
<path d="M268.524 280.435H259.838V280.638H268.524V280.435Z" fill="#EBEBEB" fill-opacity="0.2"/>
<path d="M376.812 277.011H332.478V277.214H376.812V277.011Z" fill="#EBEBEB" fill-opacity="0.2"/>
<path d="M160.596 30.3074H40.0264V157.35H160.596V30.3074Z" fill="#E6E6E6" fill-opacity="0.2"/>
<path d="M173.528 26.1943H32.229C31.91 26.1943 31.6041 26.3209 31.3786 26.5461C31.1531 26.7713 31.0264 27.0767 31.0264 27.3952C31.0264 27.5526 31.0575 27.7083 31.1181 27.8536C31.1786 27.9988 31.2673 28.1307 31.3791 28.2416C31.4909 28.3524 31.6235 28.4401 31.7694 28.4996C31.9152 28.5591 32.0714 28.5891 32.229 28.588H173.528C173.844 28.588 174.148 28.4624 174.372 28.2387C174.596 28.015 174.722 27.7116 174.722 27.3952C174.723 27.2379 174.693 27.0819 174.633 26.9363C174.574 26.7906 174.486 26.6582 174.375 26.5466C174.264 26.4349 174.132 26.3464 173.987 26.2859C173.841 26.2255 173.685 26.1943 173.528 26.1943Z" fill="#E6E6E6" fill-opacity="0.2"/>
<path d="M165.726 30.3074H42.4258V157.35H165.726V30.3074Z" fill="#F0F0F0" fill-opacity="0.2"/>
<path d="M160.596 157.351H40.0264V162.098H160.596V157.351Z" fill="#E6E6E6" fill-opacity="0.2"/>
<path d="M174.24 157.351H50.9404V162.098H174.24V157.351Z" fill="#F0F0F0"/>
<path d="M158.56 150.203V37.4644L49.5852 37.4644V150.203H158.56Z" fill="#FAFAFA" fill-opacity="0.2"/>
<path d="M74.3174 150.203L116.36 37.4561H136.203L94.1686 150.203H74.3174Z" fill="white"/>
<path d="M98.4316 150.203L140.474 37.4561H148.21L106.167 150.203H98.4316Z" fill="white"/>
<path d="M158.56 150.194V37.4561H157.649V150.194H158.56Z" fill="#E6E6E6" fill-opacity="0.2"/>
<path d="M381.024 24.0601H297.646V134.746H381.024V24.0601Z" fill="#E6E6E6" fill-opacity="0.2"/>
<path d="M387.356 24.0601H300.248V134.746H387.356V24.0601Z" fill="#F5F5F5" fill-opacity="0.2"/>
<path d="M307.532 31.3395L307.532 127.453L380.046 127.453L380.046 31.3395L307.532 31.3395Z" fill="white"/>
<path d="M391.953 176.092H345.385V266.535H391.953V176.092Z" fill="#F5F5F5" fill-opacity="0.2"/>
<path d="M391.951 176.092H388.107V266.535H391.951V176.092Z" fill="#F0F0F0"/>
<path d="M241.745 216.937H348.973V178.665H241.745V216.937Z" fill="#E6E6E6" fill-opacity="0.2"/>
<path d="M246.903 182.869L391.939 182.869V176.085L246.903 176.085V182.869Z" fill="#F0F0F0"/>
<path d="M190.111 176.092H143.542V266.535H190.111V176.092Z" fill="#F5F5F5" fill-opacity="0.2"/>
<path d="M145.222 204.904H145.433C148.405 204.904 151.255 206.083 153.357 208.181C155.458 210.28 156.639 213.126 156.639 216.093V266.535H134.017V216.093C134.017 213.126 135.197 210.28 137.299 208.181C139.4 206.083 142.25 204.904 145.222 204.904Z" fill="#E6E6E6" fill-opacity="0.2"/>
<path d="M246.916 176.092H243.072V266.535H246.916V176.092Z" fill="#F0F0F0"/>
<path d="M299.329 176.093H289.285L291.723 156.564H301.774L299.329 176.093Z" fill="#F0F0F0"/>
<path d="M301.552 176.093H291.5L293.946 156.564H303.989L301.552 176.093Z" fill="#F5F5F5" fill-opacity="0.2"/>
<path d="M302.769 166.325H292.726L293.944 156.564H303.988L302.769 166.325Z" fill="#F0F0F0"/>
<path d="M265.858 163.978H336.925C337.065 163.978 337.203 163.948 337.33 163.891C337.457 163.834 337.57 163.75 337.662 163.646C337.754 163.542 337.823 163.419 337.864 163.286C337.906 163.153 337.918 163.013 337.901 162.875L332.424 119.126C332.394 118.889 332.279 118.67 332.099 118.512C331.92 118.354 331.688 118.266 331.449 118.266H260.381C260.244 118.269 260.109 118.3 259.985 118.357C259.861 118.414 259.75 118.496 259.659 118.598C259.568 118.701 259.5 118.82 259.458 118.95C259.415 119.08 259.401 119.217 259.414 119.353L264.875 163.167C264.917 163.396 265.038 163.603 265.218 163.751C265.398 163.9 265.624 163.98 265.858 163.978Z" fill="#F0F0F0"/>
<path d="M266.914 163.978H337.982C338.121 163.978 338.259 163.948 338.386 163.891C338.513 163.834 338.626 163.75 338.718 163.646C338.81 163.542 338.879 163.419 338.921 163.286C338.962 163.153 338.974 163.013 338.957 162.875L333.48 119.126C333.45 118.889 333.335 118.67 333.155 118.512C332.976 118.354 332.744 118.266 332.505 118.266H261.437C261.297 118.266 261.159 118.296 261.032 118.353C260.905 118.41 260.791 118.494 260.698 118.598C260.605 118.702 260.535 118.825 260.493 118.958C260.451 119.091 260.438 119.231 260.454 119.37L265.914 163.167C265.957 163.399 266.081 163.608 266.264 163.757C266.447 163.905 266.678 163.984 266.914 163.978Z" fill="#F5F5F5" fill-opacity="0.2"/>
<path d="M336.665 161.545L331.537 120.596C331.527 120.53 331.494 120.47 331.443 120.427C331.393 120.384 331.328 120.36 331.261 120.361H263.005C262.966 120.361 262.927 120.369 262.891 120.384C262.855 120.4 262.823 120.424 262.797 120.453C262.771 120.482 262.751 120.516 262.739 120.554C262.728 120.591 262.724 120.63 262.728 120.669L267.856 161.618C267.866 161.684 267.899 161.745 267.95 161.788C268.001 161.831 268.065 161.854 268.132 161.854H336.388C336.428 161.854 336.466 161.846 336.502 161.83C336.538 161.814 336.57 161.791 336.596 161.762C336.622 161.733 336.642 161.698 336.654 161.661C336.666 161.624 336.669 161.584 336.665 161.545Z" fill="#E6E6E6" fill-opacity="0.2"/>
<path d="M329.384 161.886L311.345 120.385H295.524L313.564 161.886H329.384Z" fill="#EBEBEB" fill-opacity="0.2"/>
<path d="M310.512 161.886L292.473 120.385H286.776L304.816 161.886H310.512Z" fill="#EBEBEB" fill-opacity="0.2"/>
<path d="M310.665 176.092H294.3V175.889C294.3 175.459 294.471 175.046 294.776 174.742C295.081 174.438 295.494 174.267 295.925 174.267H309.04C309.471 174.267 309.884 174.438 310.189 174.742C310.494 175.046 310.665 175.459 310.665 175.889V176.092Z" fill="#F5F5F5" fill-opacity="0.2"/>
<path d="M296.22 176.092H285.12V175.889C285.12 175.459 285.291 175.046 285.596 174.742C285.901 174.438 286.314 174.267 286.745 174.267H294.586C295.017 174.267 295.431 174.438 295.736 174.742C296.04 175.046 296.212 175.459 296.212 175.889V176.092H296.22Z" fill="#F0F0F0"/>
<path d="M328.773 176.094H278.183L276.817 172.037H322.192L328.773 176.094Z" fill="#F5F5F5" fill-opacity="0.2"/>
<path d="M283.748 176.094H275.386L274.257 172.037H282.618L283.748 176.094Z" fill="#F0F0F0"/>
<path d="M267.649 176.084H253.251C253.251 175.184 253.608 174.321 254.245 173.685C254.882 173.049 255.746 172.692 256.647 172.692H264.253C265.154 172.692 266.018 173.049 266.655 173.685C267.292 174.321 267.649 175.184 267.649 176.084Z" fill="#F0F0F0"/>
<path d="M50.0184 266.533H64.1328L64.1328 201.032H50.0184L50.0184 266.533Z" fill="#E0E0E0" fill-opacity="0.2"/>
<path d="M112.69 266.536H55.6313L48.5781 189.132H105.637L112.69 266.536Z" fill="#E6E6E6" fill-opacity="0.2"/>
<path d="M115.647 266.536H58.5876L51.5264 189.132H108.593L115.647 266.536Z" fill="#F0F0F0"/>
<path d="M66.3927 257.966L60.8916 197.698H100.797L106.29 257.966H66.3927Z" fill="white"/>
<path d="M112.545 210.761H306.18C307.215 210.766 308.24 210.562 309.194 210.162C310.148 209.762 311.01 209.175 311.73 208.434C312.449 207.694 313.011 206.817 313.38 205.855C313.75 204.893 313.92 203.867 313.88 202.838L309.568 71.3932C309.482 69.2757 308.581 67.272 307.052 65.7971C305.522 64.3223 303.481 63.4891 301.35 63.4701H107.716C106.68 63.4653 105.655 63.6688 104.7 64.0685C103.746 64.4683 102.883 65.0558 102.162 65.796C101.442 66.5361 100.88 67.4135 100.509 68.3754C100.138 69.3373 99.9669 70.3638 100.005 71.3932L104.317 202.817C104.4 204.939 105.301 206.948 106.833 208.427C108.365 209.906 110.41 210.742 112.545 210.761Z" fill="#3F81FE"/>
<path d="M113.158 210.761H306.793C307.828 210.766 308.854 210.562 309.809 210.162C310.763 209.763 311.626 209.175 312.346 208.435C313.067 207.695 313.629 206.817 314 205.855C314.37 204.894 314.542 203.867 314.503 202.838L310.171 71.3932C310.083 69.2748 309.18 67.2711 307.648 65.7965C306.117 64.3218 304.075 63.4889 301.943 63.4701H108.329C107.294 63.4652 106.269 63.6688 105.315 64.0686C104.361 64.4685 103.498 65.0562 102.779 65.7965C102.06 66.5368 101.498 67.4143 101.129 68.3761C100.759 69.338 100.589 70.3643 100.629 71.3932L104.94 202.817C105.021 204.939 105.92 206.947 107.45 208.426C108.981 209.906 111.025 210.742 113.158 210.761Z" fill="#3F81FE"/>
<path opacity="0.5" d="M113.158 210.761H306.793C307.828 210.766 308.854 210.562 309.809 210.162C310.763 209.763 311.626 209.175 312.346 208.435C313.067 207.695 313.629 206.817 314 205.855C314.37 204.894 314.542 203.867 314.503 202.838L310.171 71.3932C310.083 69.2748 309.18 67.2711 307.648 65.7965C306.117 64.3218 304.075 63.4889 301.943 63.4701H108.329C107.294 63.4652 106.269 63.6688 105.315 64.0686C104.361 64.4685 103.498 65.0562 102.779 65.7965C102.06 66.5368 101.498 67.4143 101.129 68.3761C100.759 69.338 100.589 70.3643 100.629 71.3932L104.94 202.817C105.021 204.939 105.92 206.947 107.45 208.426C108.981 209.906 111.025 210.742 113.158 210.761Z" fill="white"/>
<path opacity="0.5" d="M301.485 67.427H107.841H107.191C102.23 67.8308 102.94 75.3206 107.942 75.3206H301.911C306.903 75.3206 307.126 67.8308 302.135 67.427C301.922 67.4371 301.698 67.427 301.485 67.427Z" fill="#3F81FE"/>
<path d="M288.742 71.3931C288.75 71.6284 288.71 71.8628 288.625 72.0824C288.54 72.302 288.411 72.5022 288.246 72.6709C288.081 72.8397 287.884 72.9736 287.666 73.0645C287.447 73.1554 287.213 73.2015 286.976 73.2C286.489 73.1978 286.021 73.0089 285.669 72.6725C285.318 72.336 285.11 71.8779 285.089 71.3931C285.08 71.1571 285.118 70.9216 285.203 70.7008C285.287 70.48 285.416 70.2786 285.581 70.1087C285.746 69.9389 285.944 69.8041 286.163 69.7126C286.382 69.621 286.617 69.5747 286.855 69.5762C287.345 69.576 287.816 69.7654 288.168 70.1045C288.52 70.4436 288.726 70.9058 288.742 71.3931Z" fill="#FAFAFA" fill-opacity="0.2"/>
<path d="M294.949 71.3931C294.958 71.6287 294.92 71.8638 294.835 72.084C294.75 72.3043 294.622 72.505 294.456 72.6741C294.291 72.8432 294.093 72.977 293.874 73.0674C293.655 73.1578 293.42 73.2029 293.183 73.2C292.696 73.1954 292.23 73.0057 291.879 72.6697C291.528 72.3338 291.32 71.8771 291.296 71.3931C291.287 71.1571 291.325 70.9216 291.41 70.7008C291.494 70.48 291.623 70.2786 291.788 70.1087C291.953 69.9389 292.151 69.8041 292.37 69.7126C292.589 69.621 292.824 69.5747 293.062 69.5762C293.552 69.576 294.023 69.7654 294.375 70.1045C294.727 70.4436 294.933 70.9058 294.949 71.3931Z" fill="#FAFAFA" fill-opacity="0.2"/>
<path d="M300.676 72.6922C301.371 71.9886 301.342 70.8384 300.61 70.1233C299.879 69.4081 298.723 69.3988 298.027 70.1024C297.332 70.8061 297.361 71.9562 298.093 72.6714C298.824 73.3865 299.98 73.3959 300.676 72.6922Z" fill="#FAFAFA" fill-opacity="0.2"/>
<path d="M116.916 197.641H302.191C302.566 197.644 302.938 197.571 303.284 197.427C303.63 197.283 303.943 197.071 304.204 196.803C304.464 196.535 304.668 196.217 304.802 195.868C304.935 195.519 304.996 195.147 304.981 194.775L301.43 86.6659C301.389 85.9015 301.059 85.1809 300.506 84.649C299.952 84.1172 299.217 83.8136 298.448 83.7994H113.183C112.808 83.7964 112.436 83.8691 112.09 84.0133C111.744 84.1574 111.431 84.37 111.171 84.638C110.91 84.906 110.706 85.224 110.573 85.5725C110.439 85.9211 110.378 86.2931 110.393 86.6659L113.934 194.744C113.967 195.514 114.294 196.242 114.848 196.78C115.402 197.319 116.142 197.626 116.916 197.641Z" fill="white"/>
<path d="M184.15 101.886C187.311 101.908 189.886 104.431 189.972 107.591L191.607 167.474C191.697 170.775 189.045 173.5 185.743 173.5L134.151 173.5C130.996 173.5 128.407 171.005 128.289 167.853L126.4 117.255C126.334 115.5 127.059 113.807 128.374 112.643L139.192 103.071C140.275 102.112 141.675 101.588 143.121 101.598L184.15 101.886Z" fill="#EAEAEA"/>
<path d="M131.992 124.858L181.658 125.208L181.675 123.23L132.009 122.88L131.992 124.858Z" fill="#9FC0FF"/>
<path d="M147.329 117.554L181.81 117.841L181.824 115.863L147.343 115.576L147.329 117.554Z" fill="white" fill-opacity="0.53"/>
<path d="M132.992 132.978L182.657 133.328L182.675 131.35L133.008 131L132.992 132.978Z" fill="white" fill-opacity="0.53"/>
<path d="M134 140.978L183.667 141.328L183.683 139.35L134.018 139L134 140.978Z" fill="white" fill-opacity="0.53"/>
<path d="M135 148.978L184.666 149.328L184.683 147.35L135.017 147L135 148.978Z" fill="white" fill-opacity="0.53"/>
<path d="M136 156.978L185.667 157.328L185.683 155.35L136.018 155L136 156.978Z" fill="white" fill-opacity="0.53"/>
<path d="M137 164.978L186.666 165.328L186.683 163.35L137.017 163L137 164.978Z" fill="white" fill-opacity="0.53"/>
<path d="M126.293 114.486L140.872 101.586L140.772 114.587L126.293 114.486Z" fill="#DDDDDD"/>
<g filter="url(#filter0_dddd_1876_6542)">
<path d="M365.204 110.187C365.09 107.843 363.156 106.001 360.809 106.001H289.637C287.116 106.001 285.111 108.115 285.243 110.631L285.781 120.897C285.904 123.234 287.835 125.066 290.175 125.066H361.309C363.823 125.066 365.825 122.963 365.703 120.453L365.204 110.187Z" fill="#FAE6A1"/>
<path d="M364.704 110.211C364.603 108.134 362.889 106.501 360.809 106.501H289.637C287.403 106.501 285.625 108.374 285.742 110.605L286.281 120.871C286.389 122.942 288.101 124.566 290.175 124.566H361.309C363.537 124.566 365.312 122.702 365.204 120.477L364.704 110.211Z" stroke="#F6D662"/>
</g>
<path d="M293.831 113.986L355.255 113.982L355.261 112.004L293.837 112.008L293.831 113.986Z" fill="#FDF7E0"/>
<path d="M294.998 118.383L310.689 118.488L310.687 116.51L294.996 116.405L294.998 118.383Z" fill="#FDF7E0"/>
<path d="M284.003 97.0406C283.921 96.298 283.293 95.7363 282.546 95.7363H226.639C225.764 95.7363 225.084 96.4964 225.181 97.3653L226.326 107.631C226.408 108.373 227.036 108.935 227.783 108.935H283.688C284.563 108.935 285.243 108.175 285.146 107.306L284.003 97.0406Z" fill="#F7F7F7"/>
<path d="M283.676 120.505C283.593 119.763 282.966 119.201 282.219 119.201H226.312C225.437 119.201 224.757 119.961 224.854 120.83L225.998 131.095C226.081 131.838 226.709 132.399 227.456 132.399H283.361C284.235 132.399 284.915 131.64 284.819 130.771L283.676 120.505Z" fill="#F7F7F7"/>
<path d="M285.611 143.39C285.571 142.611 284.927 142 284.147 142H228.545C227.705 142 227.037 142.704 227.081 143.543L228.391 168.61C228.432 169.389 229.075 170 229.855 170H285.455C286.295 170 286.963 169.296 286.919 168.457L285.611 143.39Z" fill="#F7F7F7"/>
<path d="M180.323 125.066C180.323 126.146 181.198 127.021 182.278 127.021C183.358 127.021 184.234 126.146 184.234 125.066C184.234 123.986 183.358 123.111 182.278 123.111C181.198 123.111 180.323 123.986 180.323 125.066ZM279.158 113.334C279.158 114.414 280.033 115.289 281.113 115.289C282.193 115.289 283.069 114.414 283.069 113.334C283.069 112.254 282.193 111.379 281.113 111.379C280.033 111.379 279.158 112.254 279.158 113.334ZM182.278 125.433H220.058V124.699H182.278V125.433ZM223.357 122.133V116.267H222.624V122.133H223.357ZM225.924 113.701H281.113V112.967H225.924V113.701ZM223.357 116.267C223.357 114.85 224.506 113.701 225.924 113.701V112.967C224.101 112.967 222.624 114.445 222.624 116.267H223.357ZM220.058 125.433C221.88 125.433 223.357 123.955 223.357 122.133H222.624C222.624 123.55 221.475 124.699 220.058 124.699V125.433Z" fill="#6EA0FE"/>
<defs>
<filter id="filter0_dddd_1876_6542" x="283.916" y="106.001" width="91.0457" height="34.9255" filterUnits="userSpaceOnUse" color-interpolation-filters="sRGB">
<feFlood flood-opacity="0" result="BackgroundImageFix"/>
<feColorMatrix in="SourceAlpha" type="matrix" values="0 0 0 0 0 0 0 0 0 0 0 0 0 0 0 0 0 0 127 0" result="hardAlpha"/>
<feOffset dy="1.32176"/>
<feGaussianBlur stdDeviation="0.660878"/>
<feColorMatrix type="matrix" values="0 0 0 0 0 0 0 0 0 0 0 0 0 0 0 0 0 0 0.1 0"/>
<feBlend mode="normal" in2="BackgroundImageFix" result="effect1_dropShadow_1876_6542"/>
<feColorMatrix in="SourceAlpha" type="matrix" values="0 0 0 0 0 0 0 0 0 0 0 0 0 0 0 0 0 0 127 0" result="hardAlpha"/>
<feOffset dx="1.32176" dy="2.64351"/>
<feGaussianBlur stdDeviation="1.32176"/>
<feColorMatrix type="matrix" values="0 0 0 0 0 0 0 0 0 0 0 0 0 0 0 0 0 0 0.09 0"/>
<feBlend mode="normal" in2="effect1_dropShadow_1876_6542" result="effect2_dropShadow_1876_6542"/>
<feColorMatrix in="SourceAlpha" type="matrix" values="0 0 0 0 0 0 0 0 0 0 0 0 0 0 0 0 0 0 127 0" result="hardAlpha"/>
<feOffset dx="2.64351" dy="6.60878"/>
<feGaussianBlur stdDeviation="1.98263"/>
<feColorMatrix type="matrix" values="0 0 0 0 0 0 0 0 0 0 0 0 0 0 0 0 0 0 0.05 0"/>
<feBlend mode="normal" in2="effect2_dropShadow_1876_6542" result="effect3_dropShadow_1876_6542"/>
<feColorMatrix in="SourceAlpha" type="matrix" values="0 0 0 0 0 0 0 0 0 0 0 0 0 0 0 0 0 0 127 0" result="hardAlpha"/>
<feOffset dx="3.96527" dy="10.574"/>
<feGaussianBlur stdDeviation="2.64351"/>
<feColorMatrix type="matrix" values="0 0 0 0 0 0 0 0 0 0 0 0 0 0 0 0 0 0 0.01 0"/>
<feBlend mode="normal" in2="effect3_dropShadow_1876_6542" result="effect4_dropShadow_1876_6542"/>
<feBlend mode="normal" in="SourceGraphic" in2="effect4_dropShadow_1876_6542" result="shape"/>
</filter>
</defs>
</svg>
