<svg width="45" height="44" viewBox="0 0 45 44" fill="none" xmlns="http://www.w3.org/2000/svg">
<g id="Group">
<path id="Vector" d="M6.86433 28.6379C5.40171 27.1754 4.24151 25.439 3.44995 23.5281C2.65839 21.6171 2.25098 19.569 2.25098 17.5006C2.25098 15.4322 2.65839 13.384 3.44995 11.4731C4.24151 9.56215 5.40171 7.82582 6.86433 6.36324C8.32694 4.90066 10.0633 3.74048 11.9743 2.94894C13.8853 2.1574 15.9335 1.75 18.0019 1.75C20.0704 1.75 22.1186 2.1574 24.0296 2.94894C25.9406 3.74048 27.6769 4.90066 29.1395 6.36324" stroke="#BBB9BE" stroke-width="3.00001" stroke-linecap="round" stroke-linejoin="round"/>
<path id="Vector_2" d="M31.8544 10.001C33.4686 12.9856 34.0761 16.4117 33.5864 19.7693C33.0967 23.127 31.5361 26.2369 29.1367 28.6362C26.7373 31.0356 23.6273 32.5962 20.2696 33.0858C16.9118 33.5755 13.4857 32.9681 10.501 31.3539" stroke="#BBB9BE" stroke-width="3.00001" stroke-linecap="round" stroke-linejoin="round"/>
<path id="Vector_3" d="M42.7491 42.25L29.1357 28.637" stroke="#BBB9BE" stroke-width="3.00001" stroke-linecap="round" stroke-linejoin="round"/>
<path id="Vector_4" d="M2.25098 33.2504L33.7513 1.75159" stroke="#BBB9BE" stroke-width="3.00001" stroke-linecap="round" stroke-linejoin="round"/>
</g>
</svg>
