<svg width="407" height="283" viewBox="0 0 407 283" fill="none" xmlns="http://www.w3.org/2000/svg">
<path d="M406.585 266.542H0.297852V266.745H406.585V266.542Z" fill="#EBEBEB" fill-opacity="0.2"/>
<path d="M169.772 230.354H12.8719C11.6428 230.352 10.4647 229.863 9.59633 228.994C8.72795 228.125 8.24023 226.948 8.24023 225.721V5.47524C8.25093 4.25488 8.74338 3.08801 9.6106 2.22809C10.4778 1.36817 11.6498 0.884659 12.8719 0.882568H169.772C171.002 0.882568 172.183 1.37071 173.053 2.23961C173.923 3.10852 174.412 4.287 174.412 5.51581V225.721C174.412 226.949 173.923 228.128 173.053 228.997C172.183 229.866 171.002 230.354 169.772 230.354ZM12.8719 1.04485C11.6966 1.047 10.5702 1.51472 9.73997 2.34535C8.90969 3.17597 8.44338 4.30163 8.44338 5.47524V225.721C8.44338 226.894 8.90969 228.02 9.73997 228.851C10.5702 229.681 11.6966 230.149 12.8719 230.151H169.772C170.948 230.149 172.075 229.681 172.907 228.851C173.738 228.021 174.206 226.895 174.209 225.721V5.47524C174.206 4.30089 173.738 3.17525 172.907 2.34485C172.075 1.51446 170.948 1.047 169.772 1.04485H12.8719Z" fill="#EBEBEB" fill-opacity="0.2"/>
<path d="M402.346 230.354H245.438C244.208 230.352 243.029 229.863 242.159 228.995C241.29 228.126 240.8 226.949 240.798 225.721V5.47524C240.811 4.25414 241.305 3.08728 242.173 2.22758C243.042 1.36789 244.215 0.884636 245.438 0.882568H402.346C403.567 0.886791 404.736 1.37125 405.602 2.23094C406.467 3.09063 406.959 4.25628 406.969 5.47524V225.721C406.969 226.947 406.483 228.123 405.616 228.991C404.75 229.86 403.574 230.35 402.346 230.354ZM245.438 1.04485C244.262 1.047 243.134 1.51446 242.303 2.34485C241.471 3.17525 241.003 4.30089 241.001 5.47524V225.721C241.003 226.895 241.471 228.021 242.303 228.851C243.134 229.681 244.262 230.149 245.438 230.151H402.346C403.522 230.149 404.649 229.681 405.481 228.851C406.312 228.021 406.78 226.895 406.782 225.721V5.47524C406.78 4.30089 406.312 3.17525 405.481 2.34485C404.649 1.51446 403.522 1.047 402.346 1.04485H245.438Z" fill="#EBEBEB" fill-opacity="0.2"/>
<path d="M140.067 274.269H118.94V274.472H140.067V274.269Z" fill="#EBEBEB" fill-opacity="0.2"/>
<path d="M63.7767 272.069H19.8164V272.272H63.7767V272.069Z" fill="#EBEBEB" fill-opacity="0.2"/>
<path d="M151.82 281.807H130.433V282.011H151.82V281.807Z" fill="#EBEBEB" fill-opacity="0.2"/>
<path d="M252.271 280.445H220.719V280.648H252.271V280.445Z" fill="#EBEBEB" fill-opacity="0.2"/>
<path d="M268.19 280.445H259.504V280.648H268.19V280.445Z" fill="#EBEBEB" fill-opacity="0.2"/>
<path d="M376.479 277.021H332.145V277.224H376.479V277.021Z" fill="#EBEBEB" fill-opacity="0.2"/>
<path d="M160.262 30.2969H39.6924V157.35H160.262V30.2969Z" fill="#E6E6E6" fill-opacity="0.2"/>
<path d="M173.194 26.1833H31.895C31.576 26.1833 31.2702 26.3099 31.0446 26.5351C30.8191 26.7603 30.6924 27.0658 30.6924 27.3843C30.6924 27.5416 30.7235 27.6974 30.7841 27.8426C30.8446 27.9879 30.9333 28.1197 31.0451 28.2306C31.1569 28.3414 31.2895 28.4291 31.4354 28.4886C31.5813 28.5481 31.7375 28.5781 31.895 28.5771H173.194C173.51 28.5771 173.814 28.4514 174.038 28.2277C174.262 28.004 174.388 27.7006 174.388 27.3843C174.389 27.2269 174.359 27.071 174.299 26.9253C174.24 26.7796 174.152 26.6472 174.041 26.5356C173.93 26.424 173.798 26.3354 173.653 26.2749C173.507 26.2145 173.351 26.1833 173.194 26.1833Z" fill="#E6E6E6" fill-opacity="0.2"/>
<path d="M165.392 30.2969H42.0918V157.35H165.392V30.2969Z" fill="#F0F0F0" fill-opacity="0.2"/>
<path d="M160.262 157.351H39.6924V162.098H160.262V157.351Z" fill="#E6E6E6" fill-opacity="0.2"/>
<path d="M173.906 157.351H50.6055V162.098H173.906V157.351Z" fill="#F0F0F0"/>
<path d="M158.226 150.202V37.4546L49.2512 37.4546V150.202H158.226Z" fill="#FAFAFA" fill-opacity="0.2"/>
<path d="M73.9834 150.202L116.026 37.446H135.869L93.8346 150.202H73.9834Z" fill="white"/>
<path d="M98.0977 150.202L140.14 37.446H147.876L105.833 150.202H98.0977Z" fill="white"/>
<path d="M158.226 150.194V37.446H157.315V150.194H158.226Z" fill="#E6E6E6" fill-opacity="0.2"/>
<path d="M380.689 24.0491H297.311V134.744H380.689V24.0491Z" fill="#E6E6E6" fill-opacity="0.2"/>
<path d="M387.022 24.0491H299.914V134.744H387.022V24.0491Z" fill="#F5F5F5" fill-opacity="0.2"/>
<path d="M307.198 31.3291L307.198 127.451L379.712 127.451L379.712 31.3291L307.198 31.3291Z" fill="white"/>
<path d="M391.619 176.094H345.051V266.543H391.619V176.094Z" fill="#F5F5F5" fill-opacity="0.2"/>
<path d="M391.617 176.094H387.773V266.543H391.617V176.094Z" fill="#F0F0F0"/>
<path d="M241.411 216.942H348.639V178.667H241.411V216.942Z" fill="#E6E6E6" fill-opacity="0.2"/>
<path d="M246.569 182.871L391.605 182.871V176.087L246.569 176.087V182.871Z" fill="#F0F0F0"/>
<path d="M189.777 176.094H143.208V266.543H189.777V176.094Z" fill="#F5F5F5" fill-opacity="0.2"/>
<path d="M144.888 204.908H145.099C148.071 204.908 150.921 206.087 153.023 208.186C155.124 210.284 156.305 213.13 156.305 216.098V266.544H133.683V216.098C133.683 213.13 134.863 210.284 136.965 208.186C139.066 206.087 141.916 204.908 144.888 204.908Z" fill="#E6E6E6" fill-opacity="0.2"/>
<path d="M246.582 176.094H242.738V266.543H246.582V176.094Z" fill="#F0F0F0"/>
<path d="M298.994 176.095H288.95L291.388 156.564H301.439L298.994 176.095Z" fill="#F0F0F0"/>
<path d="M301.218 176.095H291.166L293.612 156.564H303.655L301.218 176.095Z" fill="#F5F5F5" fill-opacity="0.2"/>
<path d="M302.435 166.325H292.392L293.61 156.564H303.654L302.435 166.325Z" fill="#F0F0F0"/>
<path d="M265.524 163.978H336.592C336.731 163.978 336.869 163.949 336.996 163.891C337.123 163.834 337.236 163.751 337.328 163.646C337.42 163.542 337.489 163.419 337.53 163.286C337.572 163.153 337.584 163.013 337.567 162.875L332.09 119.123C332.06 118.885 331.945 118.667 331.765 118.509C331.586 118.35 331.354 118.263 331.115 118.263H260.047C259.91 118.265 259.776 118.296 259.651 118.354C259.527 118.411 259.416 118.493 259.325 118.595C259.234 118.697 259.166 118.817 259.124 118.947C259.081 119.077 259.067 119.214 259.08 119.35L264.541 163.167C264.583 163.396 264.704 163.603 264.884 163.752C265.064 163.9 265.29 163.98 265.524 163.978Z" fill="#F0F0F0"/>
<path d="M266.58 163.978H337.648C337.787 163.978 337.925 163.949 338.052 163.891C338.179 163.834 338.292 163.751 338.384 163.646C338.476 163.542 338.545 163.419 338.587 163.286C338.628 163.153 338.64 163.013 338.623 162.875L333.146 119.123C333.116 118.885 333.001 118.667 332.821 118.509C332.642 118.35 332.41 118.263 332.171 118.263H261.103C260.963 118.263 260.825 118.293 260.698 118.35C260.571 118.407 260.457 118.49 260.364 118.595C260.271 118.699 260.201 118.821 260.159 118.954C260.117 119.087 260.104 119.228 260.12 119.366L265.58 163.167C265.623 163.399 265.747 163.608 265.93 163.757C266.113 163.906 266.344 163.984 266.58 163.978Z" fill="#F5F5F5" fill-opacity="0.2"/>
<path d="M336.33 161.546L331.202 120.593C331.193 120.527 331.159 120.467 331.108 120.424C331.058 120.381 330.993 120.357 330.926 120.358H262.67C262.631 120.358 262.592 120.366 262.556 120.382C262.52 120.397 262.488 120.421 262.462 120.45C262.436 120.479 262.416 120.513 262.404 120.551C262.393 120.588 262.389 120.627 262.394 120.666L267.521 161.619C267.531 161.685 267.564 161.745 267.615 161.788C267.666 161.832 267.73 161.855 267.797 161.854H336.053C336.093 161.855 336.131 161.846 336.167 161.831C336.203 161.815 336.235 161.792 336.261 161.762C336.287 161.733 336.307 161.699 336.319 161.661C336.331 161.624 336.334 161.585 336.33 161.546Z" fill="#E6E6E6" fill-opacity="0.2"/>
<path d="M329.049 161.887L311.01 120.382H295.189L313.229 161.887H329.049Z" fill="#EBEBEB" fill-opacity="0.2"/>
<path d="M310.178 161.887L292.139 120.382H286.442L304.482 161.887H310.178Z" fill="#EBEBEB" fill-opacity="0.2"/>
<path d="M310.331 176.094H293.966V175.891C293.966 175.46 294.137 175.048 294.442 174.743C294.747 174.439 295.16 174.268 295.591 174.268H308.706C309.137 174.268 309.55 174.439 309.855 174.743C310.16 175.048 310.331 175.46 310.331 175.891V176.094Z" fill="#F5F5F5" fill-opacity="0.2"/>
<path d="M295.886 176.094H284.786V175.891C284.786 175.46 284.957 175.048 285.262 174.743C285.567 174.439 285.98 174.268 286.411 174.268H294.252C294.684 174.268 295.097 174.439 295.402 174.743C295.706 175.048 295.878 175.46 295.878 175.891V176.094H295.886Z" fill="#F0F0F0"/>
<path d="M328.439 176.095H277.849L276.483 172.038H321.858L328.439 176.095Z" fill="#F5F5F5" fill-opacity="0.2"/>
<path d="M283.413 176.095H275.051L273.922 172.038H282.283L283.413 176.095Z" fill="#F0F0F0"/>
<path d="M267.315 176.085H252.917C252.917 175.186 253.274 174.323 253.911 173.687C254.548 173.051 255.412 172.693 256.313 172.693H263.919C264.82 172.693 265.684 173.051 266.321 173.687C266.958 174.323 267.315 175.186 267.315 176.085Z" fill="#F0F0F0"/>
<path d="M49.6844 266.542H63.7988L63.7988 201.036H49.6844L49.6844 266.542Z" fill="#E0E0E0" fill-opacity="0.2"/>
<path d="M112.357 266.545H55.2983L48.2451 189.135H105.304L112.357 266.545Z" fill="#E6E6E6" fill-opacity="0.2"/>
<path d="M115.314 266.545H58.2546L51.1934 189.135H108.26L115.314 266.545Z" fill="#F0F0F0"/>
<path d="M66.0587 257.974L60.5576 197.701H100.463L105.956 257.974H66.0587Z" fill="white"/>
<path d="M113.667 211.194H307.1C308.134 211.199 309.158 210.994 310.111 210.592C311.064 210.191 311.925 209.6 312.644 208.856C313.363 208.112 313.923 207.23 314.293 206.263C314.662 205.297 314.832 204.265 314.792 203.231L310.485 71.1289C310.399 69.0008 309.499 66.9871 307.971 65.5048C306.443 64.0226 304.403 63.1852 302.275 63.1661H108.842C107.808 63.1613 106.783 63.3659 105.83 63.7676C104.877 64.1693 104.014 64.7598 103.295 65.5036C102.575 66.2475 102.014 67.1293 101.643 68.096C101.273 69.0627 101.102 70.0943 101.14 71.1289L105.447 203.211C105.531 205.343 106.431 207.362 107.961 208.849C109.491 210.335 111.534 211.175 113.667 211.194Z" fill="#3F81FE"/>
<path d="M114.284 211.194H307.717C308.751 211.199 309.776 210.994 310.729 210.592C311.683 210.191 312.545 209.6 313.265 208.856C313.984 208.113 314.546 207.231 314.916 206.264C315.286 205.297 315.458 204.266 315.419 203.231L311.092 71.129C311.003 68.9999 310.101 66.9862 308.571 65.5041C307.042 64.0221 305.001 63.1851 302.872 63.1661H109.46C108.426 63.1612 107.401 63.3659 106.449 63.7677C105.496 64.1695 104.634 64.7602 103.915 65.5042C103.197 66.2482 102.636 67.1301 102.267 68.0967C101.898 69.0634 101.728 70.0948 101.767 71.129L106.075 203.211C106.155 205.343 107.053 207.361 108.582 208.848C110.111 210.334 112.153 211.175 114.284 211.194Z" fill="#3F81FE"/>
<path opacity="0.5" d="M114.284 211.194H307.717C308.751 211.199 309.776 210.994 310.729 210.593C311.683 210.191 312.545 209.6 313.265 208.856C313.984 208.113 314.546 207.231 314.916 206.264C315.286 205.297 315.458 204.266 315.419 203.231L311.092 71.129C311.003 68.9999 310.101 66.9862 308.571 65.5041C307.042 64.0221 305.001 63.1851 302.872 63.1661H109.46C108.426 63.1612 107.401 63.3659 106.449 63.7677C105.496 64.1695 104.634 64.7602 103.915 65.5042C103.197 66.2482 102.636 67.1301 102.267 68.0967C101.898 69.0634 101.728 70.0948 101.767 71.129L106.075 203.211C106.155 205.343 107.053 207.361 108.582 208.848C110.111 210.334 112.153 211.175 114.284 211.194Z" fill="white"/>
<path opacity="0.5" d="M302.407 67.1436H108.964H108.316C103.36 67.5493 104.069 75.076 109.066 75.076H302.833C307.819 75.076 308.042 67.5493 303.056 67.1436C302.843 67.1537 302.62 67.1436 302.407 67.1436Z" fill="#3F81FE"/>
<path d="M112.65 71.1299C112.658 71.3663 112.619 71.6018 112.533 71.8225C112.448 72.0432 112.32 72.2444 112.155 72.414C111.99 72.5836 111.793 72.7181 111.575 72.8094C111.357 72.9008 111.123 72.9471 110.887 72.9456C110.399 72.9434 109.932 72.7536 109.581 72.4155C109.23 72.0774 109.022 71.617 109.001 71.1299C108.992 70.8927 109.03 70.656 109.115 70.4341C109.199 70.2123 109.328 70.0098 109.493 69.8392C109.658 69.6685 109.855 69.533 110.074 69.441C110.293 69.3491 110.528 69.3024 110.765 69.304C111.254 69.3037 111.725 69.4941 112.077 69.8349C112.429 70.1757 112.634 70.6401 112.65 71.1299Z" fill="#FAFAFA" fill-opacity="0.2"/>
<path d="M118.848 71.1299C118.858 71.3666 118.819 71.6028 118.735 71.8242C118.65 72.0455 118.521 72.2472 118.356 72.4171C118.191 72.587 117.994 72.7215 117.775 72.8124C117.556 72.9032 117.321 72.9486 117.085 72.9456C116.598 72.941 116.132 72.7503 115.782 72.4127C115.431 72.0751 115.223 71.6162 115.2 71.1299C115.19 70.8927 115.229 70.656 115.313 70.4341C115.398 70.2123 115.526 70.0098 115.691 69.8392C115.856 69.6685 116.054 69.533 116.272 69.441C116.491 69.3491 116.726 69.3024 116.963 69.304C117.453 69.3037 117.923 69.4941 118.275 69.8349C118.627 70.1757 118.832 70.6401 118.848 71.1299Z" fill="#FAFAFA" fill-opacity="0.2"/>
<path d="M124.567 72.4348C125.261 71.7277 125.232 70.5718 124.502 69.8531C123.771 69.1344 122.616 69.125 121.922 69.8322C121.227 70.5393 121.256 71.6952 121.987 72.4139C122.717 73.1326 123.872 73.142 124.567 72.4348Z" fill="#FAFAFA" fill-opacity="0.2"/>
<path d="M118.037 198.009H303.118C303.493 198.012 303.864 197.939 304.21 197.794C304.555 197.649 304.868 197.435 305.129 197.166C305.389 196.897 305.592 196.577 305.726 196.227C305.86 195.876 305.921 195.503 305.906 195.128L302.358 86.4781C302.317 85.7099 301.987 84.9856 301.435 84.4511C300.882 83.9166 300.147 83.6116 299.379 83.5973H114.307C113.932 83.5942 113.561 83.6673 113.215 83.8122C112.87 83.9571 112.557 84.1707 112.297 84.44C112.036 84.7094 111.833 85.0289 111.699 85.3793C111.566 85.7296 111.505 86.1034 111.52 86.4781L115.057 195.097C115.09 195.871 115.417 196.603 115.971 197.144C116.524 197.685 117.263 197.994 118.037 198.009Z" fill="white"/>
<path d="M153.672 93.8017C153.64 93.0116 152.99 92.3877 152.2 92.3877H129.231C128.394 92.3877 127.725 93.0846 127.759 93.9213L128.287 106.913C128.319 107.703 128.969 108.327 129.759 108.327H152.727C153.564 108.327 154.233 107.63 154.199 106.793L153.672 93.8017Z" fill="#F7F7F7"/>
<path d="M289.891 139.518C289.808 138.774 289.181 138.21 288.432 138.207L132.579 137.555C131.732 137.551 131.056 138.26 131.101 139.106L131.61 148.77C131.651 149.553 132.297 150.167 133.081 150.167H289.428C290.306 150.167 290.989 149.403 290.892 148.53L289.891 139.518Z" fill="#F7F7F7"/>
<g filter="url(#filter0_dddd_1876_6620)">
<path d="M351.405 117.152C351.405 115.966 350.443 115.005 349.257 115.005H69.9486C68.7626 115.005 67.8011 115.966 67.8011 117.152V136.258C67.8011 137.444 68.7626 138.405 69.9486 138.405L349.257 138.405C350.443 138.405 351.405 137.443 351.405 136.257V117.152Z" fill="#BBE5B1" stroke="#9AD889" stroke-width="1.6"/>
<path d="M95.4272 128.268C95.457 129.131 95.3129 129.99 95.0034 130.795C94.6939 131.6 94.2255 132.333 93.6262 132.952C93.027 133.571 92.3093 134.061 91.5163 134.394C90.7233 134.728 89.8714 134.897 89.0117 134.891C87.2394 134.883 85.5382 134.191 84.2612 132.958C82.9842 131.724 82.2295 130.045 82.1537 128.268C82.1187 127.403 82.2591 126.54 82.5663 125.731C82.8735 124.922 83.3412 124.183 83.9409 123.561C84.5407 122.938 85.2601 122.444 86.0556 122.109C86.8512 121.773 87.7063 121.603 88.5692 121.609C90.3504 121.608 92.062 122.302 93.342 123.545C94.6219 124.788 95.3697 126.482 95.4272 128.268Z" fill="#78CB62"/>
<path d="M343.785 123.481C343.406 122.52 342.479 121.888 341.446 121.887L109.255 121.613C107.592 121.611 106.337 123.12 106.642 124.755C106.877 126.011 107.974 126.922 109.252 126.922H341.443C343.219 126.922 344.436 125.133 343.785 123.481Z" fill="#CCECC4"/>
</g>
<path d="M289.891 158.778C289.808 158.034 289.181 157.47 288.432 157.467L132.579 156.815C131.732 156.811 131.056 157.52 131.101 158.366L131.61 168.03C131.651 168.813 132.297 169.427 133.081 169.427H289.428C290.306 169.427 290.989 168.663 290.892 167.79L289.891 158.778Z" fill="#F7F7F7"/>
<path d="M289.891 178.038C289.808 177.294 289.181 176.73 288.432 176.727L132.579 176.075C131.732 176.072 131.056 176.781 131.101 177.626L131.61 187.291C131.651 188.074 132.297 188.687 133.081 188.687H289.428C290.306 188.687 290.989 187.924 290.892 187.051L289.891 178.038Z" fill="#F7F7F7"/>
<path d="M188.207 93.8017C188.175 93.0116 187.525 92.3877 186.735 92.3877H163.767C162.929 92.3877 162.26 93.0846 162.294 93.9213L162.822 106.913C162.854 107.703 163.504 108.327 164.295 108.327H187.262C188.099 108.327 188.769 107.63 188.735 106.793L188.207 93.8017Z" fill="#F7F7F7"/>
<path d="M222.744 93.8017C222.712 93.0116 222.063 92.3877 221.272 92.3877H198.304C197.466 92.3877 196.797 93.0846 196.831 93.9213L197.359 106.913C197.391 107.703 198.041 108.327 198.832 108.327H221.799C222.637 108.327 223.306 107.63 223.272 106.793L222.744 93.8017Z" fill="#F7F7F7"/>
<path d="M257.28 93.8017C257.248 93.0116 256.598 92.3877 255.807 92.3877H232.839C232.001 92.3877 231.332 93.0846 231.366 93.9213L231.894 106.913C231.927 107.703 232.576 108.327 233.367 108.327H256.334C257.172 108.327 257.841 107.63 257.807 106.793L257.28 93.8017Z" fill="#F7F7F7"/>
<path d="M291.812 93.8017C291.78 93.0116 291.13 92.3877 290.339 92.3877H267.371C266.534 92.3877 265.864 93.0846 265.899 93.9213L266.427 106.913C266.459 107.703 267.109 108.327 267.899 108.327H290.867C291.704 108.327 292.373 107.63 292.339 106.793L291.812 93.8017Z" fill="#F7F7F7"/>
<defs>
<filter id="filter0_dddd_1876_6620" x="52.3901" y="107.564" width="347.632" height="131.261" filterUnits="userSpaceOnUse" color-interpolation-filters="sRGB">
<feFlood flood-opacity="0" result="BackgroundImageFix"/>
<feColorMatrix in="SourceAlpha" type="matrix" values="0 0 0 0 0 0 0 0 0 0 0 0 0 0 0 0 0 0 127 0" result="hardAlpha"/>
<feOffset dx="1.32826" dy="3.98478"/>
<feGaussianBlur stdDeviation="5.31304"/>
<feColorMatrix type="matrix" values="0 0 0 0 0 0 0 0 0 0 0 0 0 0 0 0 0 0 0.1 0"/>
<feBlend mode="normal" in2="BackgroundImageFix" result="effect1_dropShadow_1876_6620"/>
<feColorMatrix in="SourceAlpha" type="matrix" values="0 0 0 0 0 0 0 0 0 0 0 0 0 0 0 0 0 0 127 0" result="hardAlpha"/>
<feOffset dx="3.98478" dy="17.2674"/>
<feGaussianBlur stdDeviation="9.29782"/>
<feColorMatrix type="matrix" values="0 0 0 0 0 0 0 0 0 0 0 0 0 0 0 0 0 0 0.09 0"/>
<feBlend mode="normal" in2="effect1_dropShadow_1876_6620" result="effect2_dropShadow_1876_6620"/>
<feColorMatrix in="SourceAlpha" type="matrix" values="0 0 0 0 0 0 0 0 0 0 0 0 0 0 0 0 0 0 127 0" result="hardAlpha"/>
<feOffset dx="10.6261" dy="39.8478"/>
<feGaussianBlur stdDeviation="12.6185"/>
<feColorMatrix type="matrix" values="0 0 0 0 0 0 0 0 0 0 0 0 0 0 0 0 0 0 0.05 0"/>
<feBlend mode="normal" in2="effect2_dropShadow_1876_6620" result="effect3_dropShadow_1876_6620"/>
<feColorMatrix in="SourceAlpha" type="matrix" values="0 0 0 0 0 0 0 0 0 0 0 0 0 0 0 0 0 0 127 0" result="hardAlpha"/>
<feOffset dx="18.5956" dy="70.3978"/>
<feGaussianBlur stdDeviation="14.6109"/>
<feColorMatrix type="matrix" values="0 0 0 0 0 0 0 0 0 0 0 0 0 0 0 0 0 0 0.01 0"/>
<feBlend mode="normal" in2="effect3_dropShadow_1876_6620" result="effect4_dropShadow_1876_6620"/>
<feBlend mode="normal" in="SourceGraphic" in2="effect4_dropShadow_1876_6620" result="shape"/>
</filter>
</defs>
</svg>
