<svg width="24" height="24" viewBox="0 0 24 24" fill="none" xmlns="http://www.w3.org/2000/svg">
<g id="settings">
<rect width="24" height="24" fill="white" fill-opacity="0.01"/>
<path id="Vector" fill-rule="evenodd" clip-rule="evenodd" d="M11.7006 16.7C11.0378 16.7094 10.3798 16.5869 9.76476 16.3398C9.14973 16.0926 8.58996 15.7257 8.11797 15.2604C7.64599 14.795 7.27119 14.2405 7.01538 13.629C6.75956 13.0175 6.62783 12.3613 6.62783 11.6985C6.62783 11.0357 6.75956 10.3795 7.01538 9.768C7.27119 9.15653 7.64599 8.602 8.11797 8.13664C8.58996 7.67128 9.14973 7.30437 9.76476 7.05722C10.3798 6.81008 11.0378 6.68764 11.7006 6.69701C13.0272 6.69701 14.2994 7.224 15.2375 8.16206C16.1756 9.10012 16.7026 10.3724 16.7026 11.699C16.7026 13.0256 16.1756 14.2979 15.2375 15.236C14.2994 16.174 13.0272 16.701 11.7006 16.701V16.7ZM20.0686 13.584C19.6759 13.4489 19.3353 13.1947 19.094 12.8568C18.8527 12.519 18.7229 12.1142 18.7226 11.699C18.7226 10.823 19.2856 10.086 20.0676 9.81401C20.183 9.77597 20.2797 9.69558 20.3381 9.58905C20.3966 9.48252 20.4125 9.35779 20.3826 9.24001C20.1854 8.54433 19.9047 7.87512 19.5466 7.24701C19.4875 7.1475 19.3943 7.07285 19.2842 7.03698C19.1742 7.0011 19.0549 7.00644 18.9486 7.05201C18.5386 7.21779 18.0859 7.24586 17.6586 7.13201C17.3231 7.04236 17.0169 6.8664 16.7706 6.62165C16.5243 6.3769 16.3464 6.0719 16.2546 5.73701C16.1379 5.30794 16.1645 4.8525 16.3306 4.44001C16.3755 4.33361 16.3805 4.21453 16.3444 4.10478C16.3084 3.99503 16.2338 3.90204 16.1346 3.84301C15.5115 3.48991 14.8485 3.2126 14.1596 3.01701C14.0419 2.98681 13.9172 3.00244 13.8106 3.06074C13.704 3.11903 13.6236 3.21564 13.5856 3.33101C13.4505 3.72362 13.1963 4.0643 12.8584 4.30558C12.5205 4.54686 12.1157 4.6767 11.7006 4.67701C11.2856 4.67671 10.8811 4.54698 10.5434 4.30588C10.2057 4.06479 9.9516 3.72435 9.81655 3.33201C9.77811 3.21666 9.69749 3.1201 9.59086 3.06168C9.48423 3.00327 9.35946 2.98731 9.24155 3.01701C8.53355 3.21701 7.86255 3.50201 7.23755 3.85901C7.14016 3.91607 7.06656 4.00628 7.0302 4.11315C6.99385 4.22001 6.99717 4.33639 7.03955 4.44101C7.18882 4.80482 7.22763 5.20454 7.15116 5.59027C7.07468 5.976 6.88629 6.33067 6.60951 6.61002C6.33273 6.88936 5.97981 7.081 5.59479 7.16103C5.20978 7.24105 4.80972 7.20592 4.44455 7.06001C4.33839 7.01558 4.21977 7.01094 4.11047 7.04695C4.00117 7.08296 3.90852 7.15719 3.84955 7.25601C3.49233 7.88457 3.21263 8.55412 3.01655 9.25001C2.98686 9.3666 3.00204 9.4901 3.05908 9.59603C3.11612 9.70197 3.21087 9.78261 3.32455 9.82201C3.71158 9.96046 4.04639 10.2151 4.2832 10.5511C4.52001 10.887 4.64726 11.288 4.64755 11.699C4.64755 12.566 4.09555 13.298 3.32355 13.576C3.21016 13.6152 3.1156 13.6955 3.05856 13.801C3.00153 13.9066 2.98618 14.0297 3.01555 14.146C3.1916 14.7669 3.434 15.367 3.73855 15.936C3.79834 16.0417 3.89617 16.1206 4.01211 16.1566C4.12806 16.1927 4.25339 16.1832 4.36255 16.13C4.95755 15.857 5.70555 15.866 6.46655 16.368C6.58355 16.445 6.69155 16.553 6.76855 16.668C7.29555 17.468 7.28055 18.248 6.96655 18.856C6.90899 18.9623 6.89433 19.0866 6.92557 19.2034C6.95681 19.3202 7.0316 19.4206 7.13455 19.484C7.7965 19.8723 8.50566 20.1737 9.24455 20.381C9.36156 20.4114 9.48574 20.3958 9.59169 20.3377C9.69764 20.2795 9.77737 20.183 9.81455 20.068C9.94849 19.6739 10.2023 19.3316 10.5405 19.089C10.8787 18.8464 11.2843 18.7156 11.7006 18.715C12.5786 18.715 13.3186 19.282 13.5876 20.068C13.6249 20.1829 13.7047 20.2792 13.8106 20.3373C13.9165 20.3955 14.0406 20.4111 14.1576 20.381C14.8867 20.1759 15.587 19.8792 16.2416 19.498C16.3451 19.4344 16.4202 19.3334 16.4513 19.2159C16.4824 19.0984 16.4671 18.9735 16.4086 18.867C16.0906 18.259 16.0716 17.474 16.5996 16.672C16.6766 16.556 16.7846 16.447 16.9016 16.37C17.6736 15.859 18.4286 15.857 19.0266 16.14C19.1357 16.1947 19.2616 16.2055 19.3784 16.1701C19.4952 16.1348 19.5941 16.056 19.6546 15.95C19.9615 15.3805 20.2056 14.7793 20.3826 14.157C20.4127 14.0395 20.397 13.9149 20.3387 13.8085C20.2804 13.7021 20.1838 13.6218 20.0686 13.584Z" fill="#73737B"/>
</g>
</svg>
