<svg width="345" height="320" viewBox="0 0 345 320" fill="none" xmlns="http://www.w3.org/2000/svg">
<path d="M60.2232 92.8457L61.5514 95.5265L64.5191 95.961L62.3712 98.0516L62.8795 101.003L60.2232 99.6093L57.5752 101.003L58.0835 98.0516L55.9355 95.961L58.9033 95.5265L60.2232 92.8457Z" fill="#EBEBEB"/>
<path d="M325.563 219.287L326.891 221.976L329.859 222.411L327.711 224.493L328.219 227.453L325.563 226.059L322.915 227.453L323.423 224.493L321.275 222.411L324.243 221.976L325.563 219.287Z" fill="#F5F5F5"/>
<path d="M273.01 297.245L274.338 299.925L277.298 300.36L275.15 302.451L275.658 305.402L273.01 304.008L270.362 305.402L270.862 302.451L268.723 300.36L271.682 299.925L273.01 297.245Z" fill="#F5F5F5"/>
<path d="M152.774 45.2138L153.266 46.214L154.373 46.378C154.434 46.3861 154.493 46.4116 154.54 46.4515C154.588 46.4914 154.624 46.5442 154.642 46.6035C154.661 46.6629 154.663 46.7264 154.647 46.7866C154.631 46.8468 154.599 46.9013 154.553 46.9437L153.733 47.7225L153.922 48.8211C153.931 48.8822 153.924 48.9448 153.9 49.002C153.877 49.0592 153.838 49.1088 153.788 49.1453C153.738 49.1817 153.679 49.2037 153.617 49.2087C153.555 49.2137 153.493 49.2015 153.438 49.1736L152.454 48.6489L151.47 49.1736C151.415 49.2015 151.353 49.2137 151.292 49.2087C151.23 49.2037 151.171 49.1817 151.121 49.1453C151.071 49.1088 151.032 49.0592 151.008 49.002C150.984 48.9448 150.977 48.8822 150.987 48.8211L151.167 47.7225L150.347 46.9437C150.301 46.9008 150.269 46.8456 150.253 46.7848C150.238 46.7239 150.24 46.6599 150.26 46.6003C150.28 46.5407 150.316 46.4881 150.365 46.4487C150.414 46.4093 150.473 46.3847 150.536 46.378L151.634 46.214L152.126 45.2138C152.146 45.1431 152.188 45.0807 152.247 45.0363C152.305 44.9918 152.377 44.9678 152.45 44.9678C152.524 44.9678 152.595 44.9918 152.653 45.0363C152.712 45.0807 152.754 45.1431 152.774 45.2138Z" fill="#EBEBEB"/>
<path d="M17.3719 284.48L17.8638 285.472L18.9623 285.636C19.0247 285.645 19.0834 285.671 19.1318 285.711C19.1801 285.752 19.2162 285.805 19.2358 285.864C19.2555 285.924 19.2579 285.988 19.2429 286.05C19.2279 286.111 19.196 286.166 19.1509 286.21L18.3311 286.981L18.5196 288.08C18.5293 288.141 18.5219 288.203 18.4983 288.26C18.4746 288.318 18.4356 288.367 18.3856 288.404C18.3356 288.44 18.2765 288.462 18.2148 288.467C18.1531 288.472 18.0912 288.46 18.0359 288.432L17.0521 287.916L16.0683 288.432C16.0131 288.46 15.9512 288.472 15.8895 288.467C15.8278 288.462 15.7687 288.44 15.7187 288.404C15.6686 288.367 15.6297 288.318 15.606 288.26C15.5824 288.203 15.575 288.141 15.5847 288.08L15.7732 286.981L14.9534 286.21C14.9084 286.167 14.8764 286.112 14.861 286.051C14.8456 285.991 14.8473 285.927 14.8661 285.868C14.8848 285.808 14.9198 285.755 14.967 285.714C15.0143 285.673 15.0721 285.646 15.1337 285.636L16.2323 285.472L16.7324 284.48C16.7543 284.413 16.7971 284.354 16.8545 284.312C16.9119 284.271 16.9811 284.248 17.0521 284.248C17.1232 284.248 17.1923 284.271 17.2498 284.312C17.3072 284.354 17.35 284.413 17.3719 284.48Z" fill="#F5F5F5"/>
<path d="M39.4835 34.6788L39.9754 35.6789L41.0821 35.8347C41.1438 35.8446 41.2016 35.8714 41.2488 35.9122C41.2961 35.9531 41.3311 36.0063 41.3498 36.0659C41.3686 36.1255 41.3703 36.1891 41.3549 36.2496C41.3395 36.3102 41.3075 36.3652 41.2625 36.4086L40.4427 37.2284L40.6312 38.3188C40.6443 38.3807 40.6393 38.445 40.6166 38.5041C40.5939 38.5632 40.5547 38.6144 40.5036 38.6517C40.4524 38.689 40.3916 38.7106 40.3284 38.7141C40.2653 38.7176 40.2024 38.7027 40.1475 38.6713L39.1637 38.1548L38.18 38.6713C38.125 38.7027 38.0622 38.7176 37.999 38.7141C37.9359 38.7106 37.8751 38.689 37.8239 38.6517C37.7728 38.6144 37.7335 38.5632 37.7109 38.5041C37.6882 38.445 37.6832 38.3807 37.6963 38.3188L37.8766 37.2284L37.0568 36.4086C37.0117 36.3647 36.9798 36.309 36.9648 36.2479C36.9498 36.1867 36.9522 36.1226 36.9719 36.0628C36.9915 36.003 37.0276 35.9499 37.0759 35.9096C37.1243 35.8692 37.183 35.8433 37.2453 35.8347L38.3439 35.6789L38.8686 34.6788C38.8949 34.6192 38.938 34.5685 38.9926 34.533C39.0472 34.4974 39.1109 34.4785 39.176 34.4785C39.2412 34.4785 39.3049 34.4974 39.3595 34.533C39.4141 34.5685 39.4571 34.6192 39.4835 34.6788Z" fill="#EBEBEB"/>
<path d="M38.1563 232.274C38.1579 232.49 38.0953 232.702 37.9765 232.882C37.8577 233.062 37.688 233.203 37.4889 233.287C37.2898 233.371 37.0703 233.394 36.8583 233.353C36.6462 233.312 36.4512 233.208 36.2979 233.056C36.1446 232.904 36.0399 232.71 35.9971 232.498C35.9544 232.286 35.9755 232.067 36.0578 231.867C36.1401 231.667 36.2798 231.496 36.4593 231.376C36.6388 231.256 36.8499 231.192 37.0659 231.192C37.3537 231.192 37.6298 231.306 37.834 231.508C38.0383 231.711 38.1541 231.986 38.1563 232.274Z" fill="#EBEBEB"/>
<path d="M193.544 95.8295C193.546 96.0455 193.483 96.2571 193.364 96.4375C193.245 96.6179 193.076 96.7589 192.877 96.8427C192.677 96.9265 192.458 96.9493 192.246 96.9081C192.034 96.867 191.839 96.7638 191.686 96.6116C191.532 96.4595 191.428 96.2652 191.385 96.0535C191.342 95.8417 191.363 95.6221 191.445 95.4224C191.528 95.2226 191.668 95.0519 191.847 94.9317C192.026 94.8115 192.238 94.7474 192.454 94.7473C192.596 94.7463 192.738 94.7734 192.87 94.8273C193.002 94.8812 193.123 94.9608 193.224 95.0614C193.325 95.162 193.406 95.2816 193.461 95.4135C193.516 95.5453 193.544 95.6867 193.544 95.8295Z" fill="#EBEBEB"/>
<path d="M137.01 35.5799C137.01 35.7955 136.946 36.0063 136.826 36.1857C136.706 36.365 136.536 36.5047 136.337 36.5872C136.137 36.6698 135.918 36.6914 135.707 36.6493C135.495 36.6072 135.301 36.5034 135.148 36.3509C134.996 36.1984 134.892 36.0041 134.85 35.7926C134.808 35.5811 134.83 35.3618 134.912 35.1626C134.995 34.9634 135.134 34.7931 135.314 34.6733C135.493 34.5534 135.704 34.4895 135.919 34.4895C136.208 34.4916 136.484 34.6072 136.688 34.8112C136.892 35.0153 137.008 35.2914 137.01 35.5799Z" fill="#F5F5F5"/>
<path d="M138.738 301.322C141.977 300.558 143.983 297.312 143.219 294.073C142.454 290.834 139.209 288.828 135.97 289.593C132.731 290.357 130.725 293.603 131.49 296.842C132.254 300.081 135.499 302.087 138.738 301.322Z" fill="#F0F0F0"/>
<path d="M135.28 291.932C134.046 291.93 132.843 292.32 131.845 293.047C131.336 294.216 131.21 295.516 131.488 296.761C131.765 298.005 132.431 299.129 133.388 299.971C134.346 300.813 135.546 301.329 136.816 301.444C138.086 301.56 139.359 301.269 140.453 300.614C140.937 299.719 141.181 298.713 141.159 297.695C141.138 296.677 140.852 295.682 140.331 294.808C139.809 293.933 139.07 293.209 138.184 292.707C137.299 292.204 136.298 291.94 135.28 291.94V291.932Z" fill="#E6E6E6"/>
<g opacity="0.3">
<path d="M132.326 74.2948C132.326 74.5984 132.236 74.8951 132.067 75.1474C131.898 75.3997 131.658 75.5962 131.378 75.712C131.097 75.8278 130.788 75.8576 130.491 75.7978C130.193 75.738 129.92 75.5912 129.706 75.3759C129.492 75.1607 129.346 74.8868 129.288 74.5889C129.23 74.2909 129.262 73.9824 129.379 73.7024C129.496 73.4224 129.694 73.1836 129.947 73.0161C130.2 72.8486 130.497 72.7601 130.801 72.7617C131.002 72.7617 131.201 72.8014 131.386 72.8786C131.572 72.9557 131.74 73.0688 131.882 73.2113C132.024 73.3537 132.136 73.5228 132.212 73.7088C132.288 73.8947 132.327 74.0939 132.326 74.2948Z" fill="#B8B8B8"/>
<path d="M27.3634 133.182C27.9611 133.182 28.4456 132.698 28.4456 132.1C28.4456 131.503 27.9611 131.018 27.3634 131.018C26.7658 131.018 26.2812 131.503 26.2812 132.1C26.2812 132.698 26.7658 133.182 27.3634 133.182Z" fill="#B8B8B8"/>
<path d="M206.151 291.22C207.007 291.22 207.701 290.526 207.701 289.671C207.701 288.815 207.007 288.121 206.151 288.121C205.295 288.121 204.602 288.815 204.602 289.671C204.602 290.526 205.295 291.22 206.151 291.22Z" fill="#B8B8B8"/>
<path d="M243.413 228.176C244.011 228.176 244.495 227.692 244.495 227.094C244.495 226.496 244.011 226.012 243.413 226.012C242.816 226.012 242.331 226.496 242.331 227.094C242.331 227.692 242.816 228.176 243.413 228.176Z" fill="#B8B8B8"/>
<path d="M315.286 33.3031C315.286 33.5172 315.223 33.7264 315.104 33.9043C314.985 34.0823 314.816 34.221 314.618 34.3029C314.421 34.3848 314.203 34.4062 313.993 34.3645C313.783 34.3227 313.59 34.2197 313.439 34.0683C313.288 33.917 313.185 33.7242 313.143 33.5142C313.101 33.3043 313.123 33.0867 313.204 32.889C313.286 32.6912 313.425 32.5222 313.603 32.4033C313.781 32.2844 313.99 32.2209 314.204 32.2209C314.491 32.2209 314.767 32.335 314.969 32.5379C315.172 32.7409 315.286 33.0161 315.286 33.3031Z" fill="#B8B8B8"/>
<path d="M109.165 11.4794C109.165 11.6934 109.102 11.9026 108.983 12.0806C108.864 12.2586 108.695 12.3973 108.497 12.4792C108.3 12.5611 108.082 12.5825 107.872 12.5408C107.662 12.499 107.469 12.3959 107.318 12.2446C107.167 12.0933 107.064 11.9004 107.022 11.6905C106.98 11.4806 107.001 11.263 107.083 11.0653C107.165 10.8675 107.304 10.6985 107.482 10.5796C107.66 10.4607 107.869 10.3972 108.083 10.3972C108.369 10.3994 108.644 10.5141 108.846 10.7165C109.048 10.919 109.163 11.193 109.165 11.4794Z" fill="#B8B8B8"/>
<path d="M195.205 68.2605C195.803 68.2605 196.287 67.776 196.287 67.1784C196.287 66.5807 195.803 66.0962 195.205 66.0962C194.608 66.0962 194.123 66.5807 194.123 67.1784C194.123 67.776 194.608 68.2605 195.205 68.2605Z" fill="#B8B8B8"/>
</g>
<path d="M83.3257 68.2686C93.2461 68.2686 101.288 60.2265 101.288 50.3062C101.288 40.3858 93.2461 32.3438 83.3257 32.3438C73.4053 32.3438 65.3633 40.3858 65.3633 50.3062C65.3633 60.2265 73.4053 68.2686 83.3257 68.2686Z" fill="#B8B8B8"/>
<path opacity="0.7" d="M83.3257 68.2686C93.2461 68.2686 101.288 60.2265 101.288 50.3062C101.288 40.3858 93.2461 32.3438 83.3257 32.3438C73.4053 32.3438 65.3633 40.3858 65.3633 50.3062C65.3633 60.2265 73.4053 68.2686 83.3257 68.2686Z" fill="white"/>
<path opacity="0.2" d="M77.1364 36.7537C74.6902 36.7462 72.2683 37.2401 70.0203 38.2048C67.2575 41.2414 65.6176 45.1324 65.3736 49.2305C65.1295 53.3286 66.296 57.3867 68.6789 60.7297C71.0619 64.0727 74.5176 66.499 78.4711 67.605C82.4247 68.7109 86.6378 68.4299 90.4094 66.8086C92.7478 64.2316 94.2877 61.0311 94.8421 57.5957C95.3966 54.1603 94.9416 50.6379 93.5326 47.4561C92.1236 44.2743 89.8211 41.57 86.9047 39.6716C83.9883 37.7732 80.5834 36.7624 77.1036 36.7619L77.1364 36.7537Z" fill="#B8B8B8"/>
<path opacity="0.2" d="M75.3506 41.5C75.3506 41.8243 75.2544 42.1413 75.0743 42.4109C74.8941 42.6806 74.638 42.8907 74.3384 43.0148C74.0388 43.1389 73.7091 43.1714 73.3911 43.1082C73.073 43.0449 72.7808 42.8887 72.5515 42.6594C72.3222 42.4301 72.1661 42.1379 72.1028 41.8199C72.0395 41.5018 72.072 41.1721 72.1961 40.8725C72.3202 40.5729 72.5304 40.3168 72.8 40.1367C73.0696 39.9565 73.3867 39.8604 73.7109 39.8604C74.1458 39.8604 74.5629 40.0331 74.8704 40.3406C75.1779 40.6481 75.3506 41.0651 75.3506 41.5Z" fill="#B8B8B8"/>
<path opacity="0.2" d="M94.6631 39.8599C94.6631 40.1842 94.5669 40.5012 94.3868 40.7708C94.2066 41.0405 93.9505 41.2506 93.6509 41.3747C93.3513 41.4988 93.0216 41.5313 92.7036 41.468C92.3855 41.4048 92.0933 41.2486 91.864 41.0193C91.6347 40.79 91.4786 40.4978 91.4153 40.1797C91.352 39.8617 91.3845 39.532 91.5086 39.2324C91.6327 38.9328 91.8429 38.6767 92.1125 38.4965C92.3821 38.3164 92.6991 38.2202 93.0234 38.2202C93.4583 38.2202 93.8754 38.393 94.1829 38.7005C94.4903 39.008 94.6631 39.425 94.6631 39.8599Z" fill="#B8B8B8"/>
<path opacity="0.2" d="M91.383 51.5684C91.383 52.1003 91.2252 52.6202 90.9298 53.0624C90.6343 53.5046 90.2143 53.8492 89.723 54.0528C89.2316 54.2563 88.6909 54.3095 88.1693 54.2058C87.6477 54.102 87.1686 53.8459 86.7925 53.4699C86.4164 53.0938 86.1603 52.6147 86.0566 52.093C85.9528 51.5714 86.0061 51.0307 86.2096 50.5394C86.4131 50.048 86.7578 49.6281 87.2 49.3326C87.6422 49.0371 88.1621 48.8794 88.6939 48.8794C89.4071 48.8794 90.0911 49.1627 90.5953 49.667C91.0996 50.1713 91.383 50.8553 91.383 51.5684Z" fill="#B8B8B8"/>
<path opacity="0.2" d="M82.8409 59.2337C82.8409 59.9439 82.6303 60.6381 82.2357 61.2286C81.8411 61.8191 81.2803 62.2794 80.6242 62.5512C79.968 62.8229 79.246 62.8941 78.5495 62.7555C77.8529 62.617 77.2131 62.275 76.7109 61.7728C76.2087 61.2706 75.8667 60.6308 75.7282 59.9342C75.5896 59.2376 75.6607 58.5156 75.9325 57.8595C76.2043 57.2034 76.6645 56.6426 77.2551 56.248C77.8456 55.8534 78.5398 55.6428 79.25 55.6428C80.2024 55.6428 81.1157 56.0211 81.7891 56.6946C82.4626 57.368 82.8409 58.2813 82.8409 59.2337Z" fill="#B8B8B8"/>
<path d="M296.211 266.974C298.211 258.5 292.963 250.009 284.489 248.009C276.015 246.009 267.524 251.257 265.524 259.731C263.524 268.206 268.772 276.697 277.246 278.697C285.72 280.697 294.211 275.448 296.211 266.974Z" fill="#B8B8B8"/>
<path opacity="0.3" d="M296.211 266.974C298.211 258.5 292.963 250.009 284.489 248.009C276.015 246.009 267.524 251.257 265.524 259.731C263.524 268.206 268.772 276.697 277.246 278.697C285.72 280.697 294.211 275.448 296.211 266.974Z" fill="white"/>
<path opacity="0.4" d="M290.823 251.146C287.328 250.091 283.575 250.283 280.206 251.688C276.836 253.093 274.059 255.624 272.349 258.849C270.639 262.074 270.101 265.793 270.829 269.37C271.556 272.948 273.503 276.162 276.336 278.463C277.806 278.909 279.334 279.136 280.87 279.135C284.125 279.134 287.299 278.126 289.958 276.249C292.617 274.372 294.63 271.719 295.721 268.652C296.811 265.585 296.926 262.256 296.049 259.122C295.172 255.988 293.346 253.202 290.823 251.146Z" fill="#B8B8B8"/>
<path d="M265.819 268.084C248.988 276.004 261.539 282.112 285.257 273.586C307.22 265.691 315.59 255.738 295.914 258.829C296.972 262.969 269.467 273.684 265.819 268.084Z" fill="#B8B8B8"/>
<path opacity="0.2" d="M290.637 108.896C268.592 123.792 240.053 143.468 232.175 190.722H230.494C238.16 143.992 265.657 123.849 287.71 108.896H290.637Z" fill="black"/>
<path d="M176.598 256.825C162.661 256.825 148.879 250.537 142.165 240.273C138.025 233.927 133.212 220.638 147.543 202.905L148.814 203.938C138.681 216.481 136.811 229.066 143.542 239.379C151.74 251.922 171.08 258.235 187.592 253.742C204.505 249.143 214.769 234.435 215.761 213.39C219.147 141.401 257.392 119.225 285.315 103.033C302.671 92.9742 315.206 85.7105 312.451 70.3715C312.066 68.2482 311.222 66.7807 309.852 65.8789C306.286 63.526 299.318 65.1575 291.251 67.0349C275.42 70.7241 253.743 75.7742 240.831 53.811L242.249 52.9912C254.547 73.9214 274.69 69.2238 290.882 65.4526C299.318 63.4932 306.598 61.7962 310.754 64.5262C312.517 65.6821 313.599 67.5103 314.034 70.101C316.993 86.5631 303.376 94.4663 286.118 104.468C258.515 120.471 220.721 142.385 217.376 213.505C216.343 235.313 205.636 250.57 187.993 255.366C184.276 256.355 180.444 256.846 176.598 256.825Z" fill="#B8B8B8"/>
<path opacity="0.2" d="M176.598 256.825C162.661 256.825 148.879 250.537 142.165 240.273C138.025 233.927 133.212 220.638 147.543 202.905L148.814 203.938C138.681 216.481 136.811 229.066 143.542 239.379C151.74 251.922 171.08 258.235 187.592 253.742C204.505 249.143 214.769 234.435 215.761 213.39C219.147 141.401 257.392 119.225 285.315 103.033C302.671 92.9742 315.206 85.7105 312.451 70.3715C312.066 68.2482 311.222 66.7807 309.852 65.8789C306.286 63.526 299.318 65.1575 291.251 67.0349C275.42 70.7241 253.743 75.7742 240.831 53.811L242.249 52.9912C254.547 73.9214 274.69 69.2238 290.882 65.4526C299.318 63.4932 306.598 61.7962 310.754 64.5262C312.517 65.6821 313.599 67.5103 314.034 70.101C316.993 86.5631 303.376 94.4663 286.118 104.468C258.515 120.471 220.721 142.385 217.376 213.505C216.343 235.313 205.636 250.57 187.993 255.366C184.276 256.355 180.444 256.846 176.598 256.825Z" fill="white"/>
<path d="M223.951 34.4307C227.729 34.4525 231.482 35.0411 235.084 36.1769C235.084 36.1769 244.103 51.5651 245.168 55.0903C244.791 58.5664 238.929 64.2642 238.929 64.2642L223.951 34.4307Z" fill="#B8B8B8"/>
<path opacity="0.3" d="M223.951 34.4307C227.729 34.4525 231.482 35.0411 235.084 36.1769C235.084 36.1769 244.103 51.5651 245.168 55.0903C244.791 58.5664 238.929 64.2642 238.929 64.2642L223.951 34.4307Z" fill="white"/>
<path d="M250.661 109.141C247.189 104.895 244.022 100.407 241.184 95.7122C240.496 94.5262 239.843 93.3183 239.225 92.0886C238.872 91.3917 238.536 90.6949 238.208 89.9898C237.778 89.3037 237.444 88.5617 237.216 87.7845C236.233 77.3973 239.791 69.7483 236.397 61.4106L222.886 66.6903C222.886 66.6903 224.034 81.5456 226.657 90.4653C228.297 95.9828 231.969 100.754 235.519 105.173C236.626 106.55 237.692 107.969 238.799 109.354C239.905 110.74 241.02 111.863 242.078 113.166C243.677 115.142 244.201 117.036 242.996 119.364L242.791 119.733C242.447 120.34 244.054 121.028 245.07 119.733C246.71 117.618 246.48 117.749 247.907 115.946C248.776 114.855 249.768 113.666 250.629 112.666C251.044 112.174 251.274 111.553 251.28 110.91C251.286 110.266 251.068 109.64 250.661 109.141Z" fill="#B8B8B8"/>
<path opacity="0.7" d="M250.661 109.141C247.189 104.895 244.022 100.407 241.184 95.7122C240.496 94.5262 239.843 93.3183 239.225 92.0886C238.872 91.3917 238.536 90.6949 238.208 89.9898C237.778 89.3037 237.444 88.5617 237.216 87.7845C236.233 77.3973 239.791 69.7483 236.397 61.4106L222.886 66.6903C222.886 66.6903 224.034 81.5456 226.657 90.4653C228.297 95.9828 231.969 100.754 235.519 105.173C236.626 106.55 237.692 107.969 238.799 109.354C239.905 110.74 241.02 111.863 242.078 113.166C243.677 115.142 244.201 117.036 242.996 119.364L242.791 119.733C242.447 120.34 244.054 121.028 245.07 119.733C246.71 117.618 246.48 117.749 247.907 115.946C248.776 114.855 249.768 113.666 250.629 112.666C251.044 112.174 251.274 111.553 251.28 110.91C251.286 110.266 251.068 109.64 250.661 109.141Z" fill="white"/>
<path opacity="0.3" d="M247.357 104.87C245.213 107.168 242.833 109.235 240.257 111.035C240.609 111.429 240.954 111.855 241.306 112.232C243.885 110.49 246.228 108.42 248.275 106.075L247.357 104.87Z" fill="#B8B8B8"/>
<path opacity="0.3" d="M250.66 109.141L250.561 109.026C249.93 109.75 249.563 110.666 249.52 111.625C249.467 112.283 249.574 112.944 249.831 113.552L250.61 112.625C251.017 112.138 251.245 111.526 251.253 110.892C251.262 110.257 251.053 109.639 250.66 109.141Z" fill="#B8B8B8"/>
<path d="M220.738 44.2689C219.273 46.462 217.516 48.4452 215.516 50.1635C214.406 51.1197 213.19 51.9449 211.892 52.6229C211.21 52.9724 210.503 53.2711 209.777 53.5165L209.219 53.6969L209.039 53.7461L208.654 53.8527C208.417 53.909 208.175 53.9473 207.932 53.9675C207.241 54.0203 206.545 53.9566 205.875 53.7789C205.029 53.5389 204.219 53.1888 203.464 52.7377C202.857 52.3829 202.269 51.997 201.702 51.5818C200.677 50.8193 199.697 49.9981 198.767 49.1223C196.973 47.4231 195.328 45.5746 193.848 43.5966C193.563 43.2113 193.421 42.7386 193.447 42.26C193.474 41.7814 193.666 41.3271 193.992 40.9753C194.317 40.6235 194.755 40.3964 195.231 40.3332C195.706 40.2699 196.188 40.3745 196.594 40.6289H196.66C198.595 41.8586 200.546 43.1539 202.448 44.3099C203.415 44.8756 204.35 45.4494 205.276 45.8922C205.699 46.1136 206.134 46.3106 206.58 46.4824C206.857 46.6049 207.154 46.6771 207.457 46.6956C207.506 46.6956 207.457 46.6382 207.154 46.6464C207.058 46.6407 206.962 46.6407 206.867 46.6464L206.686 46.6874L206.957 46.548C207.321 46.352 207.674 46.1358 208.014 45.9003C208.748 45.3831 209.434 44.8015 210.064 44.1623C211.496 42.6614 212.838 41.0763 214.081 39.4155C214.762 38.6533 215.704 38.1732 216.721 38.0693C217.738 37.9655 218.757 38.2454 219.578 38.8542C220.4 39.4629 220.964 40.3566 221.16 41.3599C221.356 42.3632 221.171 43.4036 220.64 44.2771L220.738 44.2689Z" fill="#B8B8B8"/>
<path opacity="0.7" d="M220.738 44.2689C219.273 46.462 217.516 48.4452 215.516 50.1635C214.406 51.1197 213.19 51.9449 211.892 52.6229C211.21 52.9724 210.503 53.2711 209.777 53.5165L209.219 53.6969L209.039 53.7461L208.654 53.8527C208.417 53.909 208.175 53.9473 207.932 53.9675C207.241 54.0203 206.545 53.9566 205.875 53.7789C205.029 53.5389 204.219 53.1888 203.464 52.7377C202.857 52.3829 202.269 51.997 201.702 51.5818C200.677 50.8193 199.697 49.9981 198.767 49.1223C196.973 47.4231 195.328 45.5746 193.848 43.5966C193.563 43.2113 193.421 42.7386 193.447 42.26C193.474 41.7814 193.666 41.3271 193.992 40.9753C194.317 40.6235 194.755 40.3964 195.231 40.3332C195.706 40.2699 196.188 40.3745 196.594 40.6289H196.66C198.595 41.8586 200.546 43.1539 202.448 44.3099C203.415 44.8756 204.35 45.4494 205.276 45.8922C205.699 46.1136 206.134 46.3106 206.58 46.4824C206.857 46.6049 207.154 46.6771 207.457 46.6956C207.506 46.6956 207.457 46.6382 207.154 46.6464C207.058 46.6407 206.962 46.6407 206.867 46.6464L206.686 46.6874L206.957 46.548C207.321 46.352 207.674 46.1358 208.014 45.9003C208.748 45.3831 209.434 44.8015 210.064 44.1623C211.496 42.6614 212.838 41.0763 214.081 39.4155C214.762 38.6533 215.704 38.1732 216.721 38.0693C217.738 37.9655 218.757 38.2454 219.578 38.8542C220.4 39.4629 220.964 40.3566 221.16 41.3599C221.356 42.3632 221.171 43.4036 220.64 44.2771L220.738 44.2689Z" fill="white"/>
<path d="M190.772 38.8741L191.731 40.5138C191.731 40.5138 192.46 42.6617 193.928 43.0553L197.912 41.7681L197.707 41.432C197.199 40.6614 197.256 39.1611 197.429 37.9149C197.601 36.6688 196.961 36.6278 196.486 36.9393C196.149 37.327 195.912 37.7915 195.797 38.2921C195.602 38.0213 195.385 37.7664 195.15 37.5296L193.936 36.3163C193.682 36.0675 193.342 35.9241 192.987 35.915C192.631 35.9059 192.285 36.0317 192.018 36.2671L191.034 37.1443C190.801 37.3602 190.648 37.649 190.6 37.9633C190.552 38.2776 190.613 38.5988 190.772 38.8741Z" fill="#B8B8B8"/>
<path opacity="0.7" d="M190.772 38.8741L191.731 40.5138C191.731 40.5138 192.46 42.6617 193.928 43.0553L197.912 41.7681L197.707 41.432C197.199 40.6614 197.256 39.1611 197.429 37.9149C197.601 36.6688 196.961 36.6278 196.486 36.9393C196.149 37.327 195.912 37.7915 195.797 38.2921C195.602 38.0213 195.385 37.7664 195.15 37.5296L193.936 36.3163C193.682 36.0675 193.342 35.9241 192.987 35.915C192.631 35.9059 192.285 36.0317 192.018 36.2671L191.034 37.1443C190.801 37.3602 190.648 37.649 190.6 37.9633C190.552 38.2776 190.613 38.5988 190.772 38.8741Z" fill="white"/>
<path d="M227.975 32.9707C223.556 34.1421 219.322 35.9276 215.399 38.275C214.787 38.6581 214.307 39.2191 214.022 39.8829C213.738 40.5466 213.663 41.2814 213.809 41.9888C215.391 49.728 218.99 60.0906 222.876 66.6902L241.002 59.1888C241.125 55.9914 236.723 45.6452 232.238 35.6433C231.435 33.8479 229.885 32.5116 227.975 32.9707Z" fill="#B8B8B8"/>
<path opacity="0.8" d="M227.975 32.9707C223.556 34.1421 219.322 35.9276 215.399 38.275C214.787 38.6581 214.307 39.2191 214.022 39.8829C213.738 40.5466 213.663 41.2814 213.809 41.9888C215.391 49.728 218.99 60.0906 222.876 66.6902L241.002 59.1888C241.125 55.9914 236.723 45.6452 232.238 35.6433C231.435 33.8479 229.885 32.5116 227.975 32.9707Z" fill="white"/>
<path opacity="0.3" d="M235.051 41.9815L231.452 40.7764C232.272 42.8833 235.166 45.5478 237.191 47.1136C236.535 45.474 235.805 43.7523 235.051 41.9815Z" fill="#B8B8B8"/>
<path d="M226.787 24.8549C225.287 22.0019 222.049 20.5672 218.163 20.887C214.884 21.1657 211.981 24.5106 212.326 26.3142C212.67 28.1179 215.425 28.8885 215.949 29.5116L213.678 31.1512C213.409 31.3454 213.182 31.592 213.011 31.8762C212.84 32.1603 212.728 32.4762 212.682 32.8048C212.636 33.1334 212.657 33.4678 212.744 33.7881C212.831 34.1083 212.981 34.4077 213.187 34.6683C214.146 35.8816 215.408 37.1278 216.138 38.046C222.418 37.882 227.066 35.4881 228.747 33.1844C228.116 30.2658 228.247 27.6915 226.787 24.8549Z" fill="#B8B8B8"/>
<path opacity="0.8" d="M226.787 24.8549C225.287 22.0019 222.049 20.5672 218.163 20.887C214.884 21.1657 211.981 24.5106 212.326 26.3142C212.67 28.1179 215.425 28.8885 215.949 29.5116L213.678 31.1512C213.409 31.3454 213.182 31.592 213.011 31.8762C212.84 32.1603 212.728 32.4762 212.682 32.8048C212.636 33.1334 212.657 33.4678 212.744 33.7881C212.831 34.1083 212.981 34.4077 213.187 34.6683C214.146 35.8816 215.408 37.1278 216.138 38.046C222.418 37.882 227.066 35.4881 228.747 33.1844C228.116 30.2658 228.247 27.6915 226.787 24.8549Z" fill="white"/>
<path d="M223.705 26.6252C224.151 27.7685 224.248 29.0183 223.983 30.2167C223.719 31.4151 223.105 32.5082 222.22 33.3578C221.334 34.2074 220.217 34.7755 219.008 34.9901C217.8 35.2048 216.555 35.0564 215.431 34.5637C214.307 34.0711 213.355 33.2563 212.694 32.2223C212.033 31.1883 211.693 29.9816 211.718 28.7546C211.743 27.5277 212.131 26.3356 212.833 25.3291C213.535 24.3226 214.52 23.5469 215.662 23.0999C217.197 22.5023 218.905 22.5378 220.413 23.1988C221.921 23.8597 223.105 25.092 223.705 26.6252Z" fill="#263238"/>
<path d="M276.936 100.509C276.846 97.8113 276.723 98.049 276.649 95.7781C276.6 94.3844 276.592 92.8349 276.583 91.4986C276.581 90.864 276.359 90.2498 275.956 89.7599C275.552 89.2699 274.992 88.9342 274.37 88.8096C273.288 88.5882 272.197 88.3833 271.091 88.1537C269.672 87.8504 268.27 87.5225 266.885 87.1207C265.803 86.8092 264.737 86.4649 263.679 86.0796C262.622 85.6942 261.433 85.2597 260.335 84.7514C259.039 84.2022 257.76 83.6119 256.498 82.997C255.079 82.3247 253.678 81.6197 252.276 80.9064C246.881 71.9785 246.766 66.0922 240.978 59.1892L228.55 64.8132C228.55 64.8132 237.683 81.013 243.897 87.8832C247.48 91.8347 253.095 93.622 258.105 94.9173C261.72 95.8437 265.385 96.5569 269.049 97.2374C270.476 97.4998 272.025 97.5981 273.255 98.4507C274.165 99.1483 274.789 100.154 275.009 101.279C275.064 101.509 275.113 101.738 275.157 101.968C275.313 102.656 276.993 102.132 276.936 100.509Z" fill="#B8B8B8"/>
<path opacity="0.8" d="M276.936 100.509C276.846 97.8113 276.723 98.049 276.649 95.7781C276.6 94.3844 276.592 92.8349 276.583 91.4986C276.581 90.864 276.359 90.2498 275.956 89.7599C275.552 89.2699 274.992 88.9342 274.37 88.8096C273.288 88.5882 272.197 88.3833 271.091 88.1537C269.672 87.8504 268.27 87.5225 266.885 87.1207C265.803 86.8092 264.737 86.4649 263.679 86.0796C262.622 85.6942 261.433 85.2597 260.335 84.7514C259.039 84.2022 257.76 83.6119 256.498 82.997C255.079 82.3247 253.678 81.6197 252.276 80.9064C246.881 71.9785 246.766 66.0922 240.978 59.1892L228.55 64.8132C228.55 64.8132 237.683 81.013 243.897 87.8832C247.48 91.8347 253.095 93.622 258.105 94.9173C261.72 95.8437 265.385 96.5569 269.049 97.2374C270.476 97.4998 272.025 97.5981 273.255 98.4507C274.165 99.1483 274.789 100.154 275.009 101.279C275.064 101.509 275.113 101.738 275.157 101.968C275.313 102.656 276.993 102.132 276.936 100.509Z" fill="white"/>
<path opacity="0.3" d="M270.631 88.0466C270.139 87.94 269.647 87.8334 269.147 87.7104C269.188 90.5471 267.86 95.4332 267.376 96.9171L268.934 97.2122C269.954 94.2591 270.527 91.1695 270.631 88.0466Z" fill="#B8B8B8"/>
<path opacity="0.3" d="M276.618 91.4991C276.616 90.8656 276.395 90.2524 275.993 89.7626C275.592 89.2728 275.033 88.9364 274.413 88.8101L273.593 88.6543C273.724 89.5863 274.201 90.4348 274.929 91.0318C275.397 91.4645 275.958 91.7842 276.569 91.9664C276.618 91.8188 276.618 91.6549 276.618 91.4991Z" fill="#B8B8B8"/>
<path d="M222.548 26.6746C222.876 27.9207 221.482 29.2243 220.376 28.1503C219.343 27.0427 218.212 26.0303 216.998 25.1251C215.858 24.4119 217.375 23.1657 219.17 23.6494C219.937 23.8419 220.644 24.2179 221.233 24.7449C221.821 25.2719 222.273 25.9342 222.548 26.6746Z" fill="white"/>
<path d="M222.64 66.289C222.066 66.5022 223.116 67.486 223.116 67.486C223.116 67.486 234.593 63.559 241.562 59.5173C241.579 59.2726 241.537 59.0274 241.44 58.8021C241.343 58.5768 241.194 58.3779 241.004 58.2219C235.04 61.2558 228.909 63.9491 222.64 66.289Z" fill="#B8B8B8"/>
<path opacity="0.5" d="M222.64 66.289C222.066 66.5022 223.116 67.486 223.116 67.486C223.116 67.486 234.593 63.559 241.562 59.5173C241.579 59.2726 241.537 59.0274 241.44 58.8021C241.343 58.5768 241.194 58.3779 241.004 58.2219C235.04 61.2558 228.909 63.9491 222.64 66.289Z" fill="white"/>
<path d="M231.083 32.4297C233.345 33.5774 235.469 34.7826 237.641 36.1189C238.699 36.7912 239.748 37.4716 240.789 38.2095C241.831 38.9473 242.864 39.7015 243.905 40.5542L244.29 40.8739L244.774 41.3166C245.062 41.5745 245.336 41.8482 245.594 42.1364C245.856 42.4234 246.077 42.7021 246.29 42.9563C246.504 43.2104 246.733 43.5137 246.922 43.7761C247.686 44.83 248.392 45.9248 249.037 47.0554C250.307 49.2479 251.404 51.5368 252.316 53.901C252.485 54.3476 252.493 54.8389 252.341 55.2913C252.188 55.7437 251.883 56.1292 251.479 56.3824C251.074 56.6355 250.594 56.7406 250.12 56.6798C249.647 56.619 249.209 56.3961 248.881 56.0489L248.84 55.9997C247.2 54.2535 245.618 52.4171 244.028 50.7036C242.437 48.9902 240.822 47.2522 239.486 46.4897C237.625 45.3338 235.551 44.1778 233.493 43.0464L227.295 39.6032C226.334 39.0944 225.614 38.2246 225.295 37.1853C224.975 36.146 225.081 35.0222 225.59 34.0611C226.099 33.1001 226.968 32.3805 228.008 32.0607C229.047 31.7409 230.171 31.8471 231.132 32.3559L231.083 32.4297Z" fill="#B8B8B8"/>
<path opacity="0.8" d="M231.083 32.4297C233.345 33.5774 235.469 34.7826 237.641 36.1189C238.699 36.7912 239.748 37.4716 240.789 38.2095C241.831 38.9473 242.864 39.7015 243.905 40.5542L244.29 40.8739L244.774 41.3166C245.062 41.5745 245.336 41.8482 245.594 42.1364C245.856 42.4234 246.077 42.7021 246.29 42.9563C246.504 43.2104 246.733 43.5137 246.922 43.7761C247.686 44.83 248.392 45.9248 249.037 47.0554C250.307 49.2479 251.404 51.5368 252.316 53.901C252.485 54.3476 252.493 54.8389 252.341 55.2913C252.188 55.7437 251.883 56.1292 251.479 56.3824C251.074 56.6355 250.594 56.7406 250.12 56.6798C249.647 56.619 249.209 56.3961 248.881 56.0489L248.84 55.9997C247.2 54.2535 245.618 52.4171 244.028 50.7036C242.437 48.9902 240.822 47.2522 239.486 46.4897C237.625 45.3338 235.551 44.1778 233.493 43.0464L227.295 39.6032C226.334 39.0944 225.614 38.2246 225.295 37.1853C224.975 36.146 225.081 35.0222 225.59 34.0611C226.099 33.1001 226.968 32.3805 228.008 32.0607C229.047 31.7409 230.171 31.8471 231.132 32.3559L231.083 32.4297Z" fill="white"/>
<path d="M254.261 57.9923L253.564 56.2461C253.564 56.2461 253.179 54.0161 251.793 53.3931L247.694 54.0407L247.833 54.4015C248.211 55.2213 247.924 56.7216 247.555 57.9185C247.186 59.1155 247.809 59.2712 248.333 59.0335C248.629 58.9023 248.916 58.3694 249.227 57.8037C249.38 58.0887 249.553 58.3627 249.744 58.6236L250.752 60.0091C250.963 60.2962 251.274 60.493 251.624 60.5599C251.974 60.6268 252.336 60.5589 252.638 60.3698L253.753 59.6565C254.013 59.478 254.206 59.2159 254.298 58.9135C254.391 58.6111 254.377 58.2862 254.261 57.9923Z" fill="#B8B8B8"/>
<path opacity="0.8" d="M254.261 57.9923L253.564 56.2461C253.564 56.2461 253.179 54.0161 251.793 53.3931L247.694 54.0407L247.833 54.4015C248.211 55.2213 247.924 56.7216 247.555 57.9185C247.186 59.1155 247.809 59.2712 248.333 59.0335C248.629 58.9023 248.916 58.3694 249.227 57.8037C249.38 58.0887 249.553 58.3627 249.744 58.6236L250.752 60.0091C250.963 60.2962 251.274 60.493 251.624 60.5599C251.974 60.6268 252.336 60.5589 252.638 60.3698L253.753 59.6565C254.013 59.478 254.206 59.2159 254.298 58.9135C254.391 58.6111 254.377 58.2862 254.261 57.9923Z" fill="white"/>
<path opacity="0.3" d="M227.623 41.8584L226.623 41.9404L220.482 56.7629C220.818 56.787 221.155 56.7594 221.483 56.6809C221.483 56.6809 229.484 53.6967 231.903 52.5817C230.279 49.2286 227.623 41.8584 227.623 41.8584Z" fill="#B8B8B8"/>
<path d="M216.416 45.7442C217.162 49.6189 218.547 53.3425 220.515 56.7627C223.516 55.7297 228.517 53.7785 230.943 52.6635C229.312 49.1669 227.865 45.5876 226.606 41.9402C224.04 42.1123 218.408 44.2685 216.416 45.7442Z" fill="white"/>
<path opacity="0.3" d="M222.509 48.9502C222.389 49.3511 222.153 49.7075 221.831 49.9742C221.508 50.2409 221.114 50.406 220.698 50.4486C220.281 50.4912 219.862 50.4093 219.492 50.2134C219.122 50.0174 218.819 49.7162 218.62 49.3479C218.422 48.9795 218.337 48.5606 218.377 48.144C218.416 47.7274 218.579 47.332 218.843 47.0077C219.108 46.6834 219.462 46.4448 219.862 46.3222C220.262 46.1995 220.69 46.1983 221.091 46.3186C221.627 46.4798 222.078 46.8475 222.344 47.3409C222.61 47.8344 222.669 48.4132 222.509 48.9502Z" fill="#B8B8B8"/>
<path opacity="0.6" d="M224.074 46.1295C224.042 46.2663 223.969 46.3903 223.865 46.4852C223.762 46.58 223.632 46.6413 223.493 46.661C223.354 46.6807 223.212 46.6579 223.086 46.5955C222.96 46.5331 222.856 46.4341 222.787 46.3115C222.718 46.1889 222.688 46.0484 222.701 45.9084C222.714 45.7685 222.768 45.6356 222.858 45.5273C222.947 45.4189 223.067 45.3401 223.203 45.3013C223.338 45.2625 223.481 45.2654 223.615 45.3096C223.781 45.3628 223.92 45.4769 224.006 45.6291C224.091 45.7813 224.115 45.9601 224.074 46.1295Z" fill="#B8B8B8"/>
<path opacity="0.6" d="M225.909 45.4166C225.89 45.5117 225.851 45.6018 225.795 45.681C225.739 45.7602 225.667 45.8268 225.584 45.8766C225.5 45.9264 225.408 45.9582 225.311 45.9701C225.215 45.9819 225.117 45.9735 225.024 45.9454C224.932 45.9174 224.846 45.8702 224.772 45.8069C224.698 45.7437 224.639 45.6658 224.597 45.5782C224.555 45.4906 224.532 45.3952 224.53 45.2982C224.527 45.2013 224.544 45.1048 224.581 45.0149C224.607 44.9282 224.65 44.8475 224.708 44.7774C224.765 44.7073 224.836 44.6493 224.916 44.6067C224.996 44.564 225.084 44.5376 225.174 44.5288C225.264 44.5201 225.355 44.5293 225.442 44.5558C225.617 44.609 225.765 44.7291 225.852 44.8903C225.94 45.0514 225.96 45.2405 225.909 45.4166Z" fill="#B8B8B8"/>
<path opacity="0.5" d="M228.485 51.8026L220.902 54.795L220.451 53.3029L228.026 50.3105L228.485 51.8026Z" fill="#B8B8B8"/>
<path opacity="0.2" d="M186.65 165.742C186.633 170.516 186.172 175.278 185.273 179.966C184.306 184.18 182.803 187.263 180.764 189.214C179.815 190.157 178.687 190.901 177.447 191.403C176.207 191.906 174.879 192.156 173.541 192.141C169.328 192.141 166.111 189.842 163.892 185.246C163.502 184.42 163.171 183.568 162.9 182.696C158.214 186.721 153.85 191.107 149.848 195.814L145.495 200.946C147.838 203.32 150.541 205.31 153.505 206.84C158.61 209.48 165.31 210.803 173.607 210.808C175.066 210.808 176.476 210.767 177.846 210.685C182.865 203.258 187.018 195.281 190.225 186.91L202.399 155.167L186.65 165.742Z" fill="black"/>
<path d="M76.9004 209.054L91.2474 223.401L131.419 185.55C117.572 180.262 90.6489 195.273 76.9004 209.054Z" fill="#263238" fill-opacity="0.69"/>
<path d="M126.935 259.064C122.352 254.473 112.588 244.717 112.588 244.717L150.439 204.545C155.694 218.36 140.683 245.307 126.935 259.064Z" fill="#263238" fill-opacity="0.69"/>
<path d="M181.845 168.636L197.496 138.458L167.318 154.125C157.624 159.153 148.674 165.498 140.722 172.981L89.2783 221.409L114.554 246.684L162.981 195.24C170.468 187.286 176.816 178.333 181.845 168.636Z" fill="#B8B8B8"/>
<path opacity="0.6" d="M181.845 168.636L197.496 138.458L167.318 154.125C157.624 159.153 148.674 165.498 140.722 172.981L89.2783 221.409L114.554 246.684L162.981 195.24C170.468 187.286 176.816 178.333 181.845 168.636Z" fill="white"/>
<path d="M149.709 196.822C155.549 196.822 160.284 192.087 160.284 186.246C160.284 180.405 155.549 175.67 149.709 175.67C143.868 175.67 139.133 180.405 139.133 186.246C139.133 192.087 143.868 196.822 149.709 196.822Z" fill="white"/>
<path d="M149.707 193.043C153.461 193.043 156.504 190 156.504 186.246C156.504 182.493 153.461 179.45 149.707 179.45C145.954 179.45 142.911 182.493 142.911 186.246C142.911 190 145.954 193.043 149.707 193.043Z" fill="#B8B8B8"/>
<path opacity="0.3" d="M123.105 237.6L98.3545 212.849L118.621 193.78L142.174 217.342L123.105 237.6Z" fill="#B8B8B8"/>
<path d="M82.4995 231.698C63.9714 233.198 57.8308 245.061 55.7321 260.826C54.6663 268.868 54.1908 277.009 47.4436 281.715C47.0377 281.991 46.7321 282.391 46.5726 282.855C46.413 283.319 46.4081 283.823 46.5586 284.29C46.7091 284.757 47.0069 285.163 47.4073 285.446C47.8078 285.73 48.2893 285.876 48.7799 285.864C73.6535 285.085 85.2541 272.91 86.7134 267.827C86.3303 270.484 85.6454 273.089 84.672 275.591C84.4931 276.033 84.458 276.519 84.5719 276.982C84.6857 277.444 84.9427 277.859 85.3061 278.167C85.6695 278.475 86.1208 278.661 86.5958 278.697C87.0708 278.734 87.5451 278.619 87.9513 278.37C94.928 274.001 103.684 265.95 104.266 252.89C99.1338 245.618 82.4995 231.698 82.4995 231.698Z" fill="#B8B8B8"/>
<path opacity="0.2" d="M82.4995 231.698C63.9714 233.198 57.8308 245.061 55.7321 260.826C54.6663 268.868 54.1908 277.009 47.4436 281.715C47.0377 281.991 46.7321 282.391 46.5726 282.855C46.413 283.319 46.4081 283.823 46.5586 284.29C46.7091 284.757 47.0069 285.163 47.4073 285.446C47.8078 285.73 48.2893 285.876 48.7799 285.864C73.6535 285.085 85.2541 272.91 86.7134 267.827C86.3303 270.484 85.6454 273.089 84.672 275.591C84.4931 276.033 84.458 276.519 84.5719 276.982C84.6857 277.444 84.9427 277.859 85.3061 278.167C85.6695 278.475 86.1208 278.661 86.5958 278.697C87.0708 278.734 87.5451 278.619 87.9513 278.37C94.928 274.001 103.684 265.95 104.266 252.89C99.1338 245.618 82.4995 231.698 82.4995 231.698Z" fill="white"/>
<path d="M107.145 258.489L77.4668 228.811L93.2731 225.392L110.563 242.682L107.145 258.489Z" fill="#B8B8B8"/>
</svg>
