<svg width="22" height="22" viewBox="0 0 22 22" fill="none" xmlns="http://www.w3.org/2000/svg">
<g id="Icons/Templates 24px">
<path id="Vector" d="M19 0H3C1.343 0 0 1.343 0 3V19C0 20.657 1.343 22 3 22H19C20.657 22 22 20.657 22 19V3C22 1.343 20.657 0 19 0ZM9 18H5C4.448 18 4 17.552 4 17V13C4 12.448 4.448 12 5 12H9C9.552 12 10 12.448 10 13V17C10 17.552 9.552 18 9 18ZM9 10H5C4.448 10 4 9.552 4 9V5C4 4.448 4.448 4 5 4H9C9.552 4 10 4.448 10 5V9C10 9.552 9.552 10 9 10ZM17 18H13C12.448 18 12 17.552 12 17V5C12 4.448 12.448 4 13 4H17C17.552 4 18 4.448 18 5V17C18 17.552 17.552 18 17 18Z" fill="#F2F6FF"/>
</g>
</svg>
