<svg width="408" height="282" viewBox="0 0 408 282" fill="none" xmlns="http://www.w3.org/2000/svg">
<path d="M407.251 266.533H0.963867V266.737H407.251V266.533Z" fill="#EBEBEB" fill-opacity="0.2"/>
<path d="M170.438 230.348H13.5379C12.3088 230.346 11.1307 229.857 10.2623 228.988C9.39397 228.12 8.90625 226.943 8.90625 225.715V5.48805C8.91695 4.26778 9.40939 3.10101 10.2766 2.24116C11.1438 1.38132 12.3158 0.897842 13.5379 0.895752H170.438C171.669 0.895752 172.849 1.38386 173.719 2.25269C174.589 3.12152 175.078 4.2999 175.078 5.52861V225.715C175.078 226.944 174.589 228.122 173.719 228.991C172.849 229.86 171.669 230.348 170.438 230.348ZM13.5379 1.05802C12.3627 1.06017 11.2363 1.52785 10.406 2.35841C9.57571 3.18897 9.10939 4.31454 9.10939 5.48805V225.715C9.10939 226.889 9.57571 228.014 10.406 228.845C11.2363 229.675 12.3627 230.143 13.5379 230.145H170.438C171.614 230.143 172.741 229.676 173.573 228.845C174.404 228.015 174.872 226.89 174.875 225.715V5.48805C174.872 4.31379 174.404 3.18824 173.573 2.35792C172.741 1.52759 171.614 1.06017 170.438 1.05802H13.5379Z" fill="#EBEBEB" fill-opacity="0.2"/>
<path d="M403.012 230.348H246.104C244.874 230.346 243.695 229.857 242.825 228.989C241.956 228.12 241.466 226.943 241.464 225.715V5.48805C241.477 4.26704 241.971 3.10028 242.839 2.24066C243.708 1.38103 244.881 0.89782 246.104 0.895752H403.012C404.233 0.899975 405.402 1.38439 406.268 2.24401C407.133 3.10363 407.625 4.26918 407.635 5.48805V225.715C407.635 226.941 407.149 228.117 406.282 228.985C405.416 229.854 404.24 230.344 403.012 230.348ZM246.104 1.05802C244.928 1.06017 243.8 1.52759 242.969 2.35792C242.137 3.18824 241.669 4.31379 241.667 5.48805V225.715C241.669 226.89 242.137 228.015 242.969 228.845C243.8 229.676 244.928 230.143 246.104 230.145H403.012C404.188 230.143 405.315 229.676 406.147 228.845C406.978 228.015 407.446 226.89 407.448 225.715V5.48805C407.446 4.31379 406.978 3.18824 406.147 2.35792C405.315 1.52759 404.188 1.06017 403.012 1.05802H246.104Z" fill="#EBEBEB" fill-opacity="0.2"/>
<path d="M140.733 274.259H119.606V274.463H140.733V274.259Z" fill="#EBEBEB" fill-opacity="0.2"/>
<path d="M64.4427 272.059H20.4824V272.263H64.4427V272.059Z" fill="#EBEBEB" fill-opacity="0.2"/>
<path d="M152.486 281.797H131.099V282.001H152.486V281.797Z" fill="#EBEBEB" fill-opacity="0.2"/>
<path d="M252.937 280.435H221.385V280.638H252.937V280.435Z" fill="#EBEBEB" fill-opacity="0.2"/>
<path d="M268.856 280.435H260.17V280.638H268.856V280.435Z" fill="#EBEBEB" fill-opacity="0.2"/>
<path d="M377.144 277.011H332.81V277.215H377.144V277.011Z" fill="#EBEBEB" fill-opacity="0.2"/>
<path d="M160.928 30.3076H40.3584V157.35H160.928V30.3076Z" fill="#E6E6E6" fill-opacity="0.2"/>
<path d="M173.86 26.1946H32.561C32.2421 26.1946 31.9362 26.3211 31.7106 26.5463C31.4851 26.7715 31.3584 27.0769 31.3584 27.3954C31.3584 27.5527 31.3896 27.7085 31.4501 27.8537C31.5106 27.9989 31.5993 28.1308 31.7111 28.2416C31.8229 28.3525 31.9555 28.4402 32.1014 28.4996C32.2473 28.5591 32.4035 28.5892 32.561 28.5881H173.86C174.176 28.5881 174.48 28.4624 174.704 28.2388C174.928 28.0151 175.054 27.7117 175.054 27.3954C175.055 27.2381 175.025 27.0821 174.965 26.9365C174.906 26.7908 174.818 26.6584 174.707 26.5468C174.596 26.4352 174.464 26.3466 174.319 26.2861C174.173 26.2257 174.017 26.1946 173.86 26.1946Z" fill="#E6E6E6" fill-opacity="0.2"/>
<path d="M166.058 30.3076H42.7578V157.35H166.058V30.3076Z" fill="#F0F0F0" fill-opacity="0.2"/>
<path d="M160.928 157.351H40.3584V162.098H160.928V157.351Z" fill="#E6E6E6" fill-opacity="0.2"/>
<path d="M174.573 157.351H51.2725V162.098H174.573V157.351Z" fill="#F0F0F0"/>
<path d="M158.892 150.203V37.4646L49.9172 37.4646V150.203H158.892Z" fill="#FAFAFA" fill-opacity="0.2"/>
<path d="M74.6494 150.203L116.692 37.4563H136.535L94.5006 150.203H74.6494Z" fill="white"/>
<path d="M98.7637 150.203L140.806 37.4563H148.542L106.499 150.203H98.7637Z" fill="white"/>
<path d="M158.892 150.195V37.4563H157.981V150.195H158.892Z" fill="#E6E6E6" fill-opacity="0.2"/>
<path d="M381.356 24.0603H297.978V134.746H381.356V24.0603Z" fill="#E6E6E6" fill-opacity="0.2"/>
<path d="M387.688 24.0603H300.58V134.746H387.688V24.0603Z" fill="#F5F5F5" fill-opacity="0.2"/>
<path d="M307.864 31.3398L307.864 127.453L380.378 127.453L380.378 31.3397L307.864 31.3398Z" fill="white"/>
<path d="M392.285 176.093H345.717V266.535H392.285V176.093Z" fill="#F5F5F5" fill-opacity="0.2"/>
<path d="M392.283 176.093H388.439V266.535H392.283V176.093Z" fill="#F0F0F0"/>
<path d="M242.077 216.937H349.305V178.665H242.077V216.937Z" fill="#E6E6E6" fill-opacity="0.2"/>
<path d="M247.235 182.869L392.271 182.869V176.086L247.235 176.086V182.869Z" fill="#F0F0F0"/>
<path d="M190.443 176.093H143.874V266.535H190.443V176.093Z" fill="#F5F5F5" fill-opacity="0.2"/>
<path d="M145.554 204.905H145.765C148.737 204.905 151.587 206.083 153.689 208.182C155.79 210.28 156.971 213.126 156.971 216.093V266.535H134.349V216.093C134.349 213.126 135.529 210.28 137.631 208.182C139.732 206.083 142.582 204.905 145.554 204.905Z" fill="#E6E6E6" fill-opacity="0.2"/>
<path d="M247.248 176.093H243.404V266.535H247.248V176.093Z" fill="#F0F0F0"/>
<path d="M299.661 176.094H289.617L292.055 156.564H302.106L299.661 176.094Z" fill="#F0F0F0"/>
<path d="M301.884 176.094H291.832L294.278 156.564H304.321L301.884 176.094Z" fill="#F5F5F5" fill-opacity="0.2"/>
<path d="M303.101 166.325H293.058L294.276 156.564H304.32L303.101 166.325Z" fill="#F0F0F0"/>
<path d="M266.19 163.978H337.258C337.397 163.978 337.535 163.949 337.662 163.891C337.789 163.834 337.902 163.75 337.994 163.646C338.086 163.542 338.155 163.419 338.196 163.286C338.238 163.153 338.25 163.013 338.233 162.875L332.756 119.126C332.726 118.889 332.611 118.671 332.431 118.512C332.252 118.354 332.02 118.266 331.781 118.266H260.713C260.576 118.269 260.442 118.3 260.317 118.357C260.193 118.414 260.082 118.497 259.991 118.599C259.9 118.701 259.832 118.821 259.79 118.951C259.747 119.08 259.733 119.218 259.746 119.354L265.207 163.167C265.249 163.396 265.37 163.603 265.55 163.752C265.73 163.9 265.956 163.98 266.19 163.978Z" fill="#F0F0F0"/>
<path d="M267.246 163.978H338.314C338.453 163.978 338.591 163.949 338.718 163.891C338.845 163.834 338.958 163.75 339.05 163.646C339.143 163.542 339.211 163.419 339.253 163.286C339.294 163.153 339.306 163.013 339.289 162.875L333.812 119.126C333.782 118.889 333.667 118.671 333.487 118.512C333.308 118.354 333.076 118.266 332.837 118.266H261.769C261.629 118.267 261.491 118.296 261.364 118.353C261.237 118.411 261.123 118.494 261.03 118.598C260.937 118.702 260.867 118.825 260.825 118.958C260.783 119.091 260.77 119.231 260.786 119.37L266.246 163.167C266.289 163.399 266.413 163.608 266.596 163.757C266.779 163.906 267.01 163.984 267.246 163.978Z" fill="#F5F5F5" fill-opacity="0.2"/>
<path d="M336.997 161.546L331.869 120.596C331.86 120.53 331.826 120.47 331.775 120.427C331.725 120.384 331.66 120.36 331.593 120.361H263.337C263.298 120.361 263.259 120.369 263.223 120.385C263.187 120.401 263.155 120.424 263.129 120.453C263.103 120.482 263.083 120.517 263.071 120.554C263.06 120.591 263.056 120.631 263.061 120.669L268.188 161.619C268.198 161.685 268.231 161.745 268.282 161.788C268.333 161.831 268.397 161.855 268.464 161.854H336.72C336.76 161.854 336.798 161.846 336.834 161.83C336.87 161.815 336.902 161.791 336.928 161.762C336.954 161.733 336.974 161.699 336.986 161.661C336.998 161.624 337.001 161.585 336.997 161.546Z" fill="#E6E6E6" fill-opacity="0.2"/>
<path d="M329.716 161.887L311.677 120.385H295.856L313.896 161.887H329.716Z" fill="#EBEBEB" fill-opacity="0.2"/>
<path d="M310.844 161.887L292.805 120.385H287.108L305.148 161.887H310.844Z" fill="#EBEBEB" fill-opacity="0.2"/>
<path d="M310.997 176.093H294.632V175.89C294.632 175.459 294.803 175.047 295.108 174.742C295.413 174.438 295.826 174.267 296.257 174.267H309.372C309.803 174.267 310.216 174.438 310.521 174.742C310.826 175.047 310.997 175.459 310.997 175.89V176.093Z" fill="#F5F5F5" fill-opacity="0.2"/>
<path d="M296.552 176.093H285.452V175.89C285.452 175.459 285.623 175.047 285.928 174.742C286.233 174.438 286.646 174.267 287.077 174.267H294.918C295.35 174.267 295.763 174.438 296.068 174.742C296.372 175.047 296.544 175.459 296.544 175.89V176.093H296.552Z" fill="#F0F0F0"/>
<path d="M329.105 176.094H278.515L277.149 172.037H322.524L329.105 176.094Z" fill="#F5F5F5" fill-opacity="0.2"/>
<path d="M284.08 176.094H275.718L274.589 172.037H282.95L284.08 176.094Z" fill="#F0F0F0"/>
<path d="M267.981 176.084H253.583C253.583 175.185 253.94 174.322 254.577 173.686C255.214 173.05 256.078 172.693 256.979 172.693H264.585C265.486 172.693 266.35 173.05 266.987 173.686C267.624 174.322 267.981 175.185 267.981 176.084Z" fill="#F0F0F0"/>
<path d="M50.3504 266.533H64.4648L64.4648 201.032H50.3504L50.3504 266.533Z" fill="#E0E0E0" fill-opacity="0.2"/>
<path d="M113.022 266.536H55.9633L48.9102 189.132H105.969L113.022 266.536Z" fill="#E6E6E6" fill-opacity="0.2"/>
<path d="M115.979 266.536H58.9197L51.8584 189.132H108.925L115.979 266.536Z" fill="#F0F0F0"/>
<path d="M66.7248 257.966L61.2236 197.698H101.129L106.622 257.966H66.7248Z" fill="white"/>
<g filter="url(#filter0_ddd_1876_6459)">
<path d="M99.7558 125.096L98.7471 125.129L99.1863 138.577L100.195 138.544L99.7558 125.096Z" fill="#3F81FE"/>
<path d="M99.3789 113.49L98.3701 113.523L98.579 119.919L99.5878 119.886L99.3789 113.49Z" fill="#3F81FE"/>
<path d="M113.008 210.758L305.66 210.761C306.69 210.766 307.71 210.563 308.659 210.163C309.608 209.763 310.466 209.175 311.182 208.435C311.898 207.695 312.456 206.817 312.824 205.855C313.192 204.894 313.361 203.867 313.321 202.838L309.029 71.3971C308.944 69.2796 308.047 67.276 306.525 65.8011C305.003 64.3262 302.972 63.493 300.853 63.4739L108.201 63.4707C107.171 63.4659 106.15 63.6694 105.201 64.0691C104.251 64.4688 103.392 65.0563 102.676 65.7964C101.959 66.5365 101.4 67.4139 101.031 68.3757C100.662 69.3376 100.492 70.3641 100.53 71.3936L104.822 202.815C104.905 204.937 105.802 206.945 107.326 208.424C108.85 209.903 110.885 210.739 113.008 210.758Z" fill="#3F81FE"/>
<path d="M113.623 210.758L306.275 210.761C307.305 210.766 308.325 210.563 309.275 210.163C310.224 209.763 311.083 209.176 311.8 208.436C312.516 207.695 313.076 206.818 313.445 205.856C313.813 204.894 313.984 203.868 313.946 202.838L309.633 71.3971C309.545 69.2787 308.647 67.275 307.123 65.8004C305.599 64.3257 303.567 63.4929 301.447 63.4739L108.815 63.4707C107.786 63.4658 106.765 63.6694 105.816 64.0692C104.867 64.469 104.009 65.0567 103.293 65.797C102.578 66.5372 102.019 67.4147 101.651 68.3765C101.284 69.3383 101.115 70.3646 101.154 71.3936L105.447 202.815C105.527 204.936 106.421 206.944 107.944 208.424C109.466 209.903 111.5 210.739 113.623 210.758Z" fill="#3F81FE"/>
<path opacity="0.5" d="M113.623 210.758L306.275 210.761C307.305 210.766 308.325 210.563 309.275 210.163C310.224 209.763 311.083 209.176 311.8 208.436C312.516 207.695 313.076 206.818 313.445 205.856C313.813 204.894 313.984 203.868 313.946 202.838L309.633 71.3971C309.545 69.2787 308.647 67.275 307.123 65.8004C305.599 64.3257 303.567 63.4929 301.447 63.4739L108.815 63.4707C107.786 63.4658 106.765 63.6694 105.816 64.0692C104.867 64.469 104.009 65.0567 103.293 65.797C102.578 66.5372 102.019 67.4147 101.651 68.3765C101.284 69.3383 101.115 70.3646 101.154 71.3936L105.447 202.815C105.527 204.936 106.421 206.944 107.944 208.424C109.466 209.903 111.5 210.739 113.623 210.758Z" fill="white"/>
<path opacity="0.5" d="M300.988 67.4298L108.324 67.4273L107.678 67.4273C102.742 67.8308 103.449 75.3176 108.425 75.3176L301.412 75.3201C306.379 75.3202 306.601 67.8335 301.634 67.4298C301.422 67.4399 301.2 67.4298 300.988 67.4298Z" fill="#3F81FE"/>
<path d="M113.19 71.3943C113.198 71.6294 113.159 71.8639 113.074 72.0834C112.989 72.303 112.861 72.5032 112.697 72.6719C112.533 72.8407 112.336 72.9745 112.119 73.0654C111.902 73.1563 111.669 73.2024 111.434 73.2009C110.948 73.1987 110.483 73.0098 110.133 72.6734C109.784 72.337 109.577 71.8789 109.556 71.3942C109.547 71.1582 109.585 70.9226 109.669 70.7019C109.753 70.4812 109.881 70.2798 110.045 70.1099C110.21 69.9401 110.407 69.8053 110.624 69.7138C110.842 69.6223 111.076 69.5759 111.312 69.5775C111.8 69.5772 112.269 69.7667 112.619 70.1058C112.969 70.4448 113.174 70.9069 113.19 71.3943Z" fill="#FAFAFA" fill-opacity="0.2"/>
<path d="M119.359 71.3943C119.368 71.6298 119.33 71.8649 119.246 72.0851C119.162 72.3053 119.033 72.506 118.869 72.6751C118.705 72.8441 118.508 72.9779 118.29 73.0683C118.072 73.1587 117.838 73.2038 117.603 73.2009C117.118 73.1963 116.654 73.0066 116.305 72.6707C115.956 72.3347 115.748 71.8781 115.725 71.3942C115.716 71.1582 115.754 70.9226 115.838 70.7019C115.922 70.4812 116.05 70.2798 116.214 70.1099C116.379 69.9401 116.575 69.8053 116.793 69.7138C117.011 69.6223 117.245 69.5759 117.481 69.5775C117.969 69.5772 118.438 69.7667 118.788 70.1058C119.138 70.4448 119.343 70.9069 119.359 71.3943Z" fill="#FAFAFA" fill-opacity="0.2"/>
<path d="M125.056 72.6925C125.748 71.9889 125.719 70.8388 124.991 70.1236C124.264 69.4085 123.113 69.3991 122.421 70.1027C121.73 70.8063 121.759 71.9564 122.486 72.6716C123.214 73.3867 124.364 73.3961 125.056 72.6925Z" fill="#FAFAFA" fill-opacity="0.2"/>
<path d="M117.358 197.639L301.693 197.642C302.066 197.645 302.436 197.572 302.78 197.428C303.124 197.284 303.435 197.071 303.695 196.803C303.954 196.535 304.157 196.217 304.29 195.869C304.423 195.52 304.484 195.148 304.469 194.775L300.934 86.6695C300.893 85.9051 300.564 85.1845 300.014 84.6527C299.463 84.1209 298.731 83.8173 297.966 83.8031L113.641 83.7999C113.268 83.7969 112.898 83.8697 112.554 84.0138C112.21 84.1579 111.899 84.3704 111.639 84.6385C111.38 84.9065 111.177 85.2244 111.044 85.573C110.911 85.9216 110.851 86.2935 110.866 86.6663L114.39 194.742C114.424 195.512 114.749 196.24 115.3 196.778C115.852 197.316 116.588 197.624 117.358 197.639Z" fill="white"/>
<g opacity="0.3">
<path d="M252.637 184.27L249.266 184.27L249.266 183.311L251.648 183.311L251.567 180.929L252.526 180.899L252.637 184.27Z" fill="#3F81FE"/>
<path d="M243.909 184.268L238.549 184.268L238.549 183.259L243.909 183.259L243.909 184.268ZM233.189 184.268L227.88 184.268L227.88 183.259L233.24 183.259L233.189 184.268ZM222.469 184.268L217.11 184.268L217.109 183.259L222.469 183.259L222.469 184.268ZM211.75 184.268L206.39 184.268L206.39 183.259L211.729 183.259L211.75 184.268ZM201.04 184.268L195.67 184.268L195.67 183.259L201.04 183.259L201.04 184.268ZM190.32 184.268L184.96 184.268L184.96 183.259L190.32 183.259L190.32 184.268ZM179.6 184.268L174.24 184.267L174.24 183.259L179.6 183.259L179.6 184.268Z" fill="#3F81FE"/>
<path d="M168.885 184.27L165.544 184.27L165.443 180.929L166.392 180.899L166.473 183.311L168.885 183.311L168.885 184.27Z" fill="#3F81FE"/>
<path d="M165.299 175.568L165.127 170.208L166.136 170.208L166.308 175.568L165.299 175.568ZM164.956 164.849L164.774 159.489L165.732 159.489L165.904 164.849L164.956 164.849ZM164.602 154.13L164.431 148.77L165.379 148.77L165.561 154.13L164.602 154.13ZM164.249 143.421L164.077 138.061L165.036 138.061L165.208 143.421L164.249 143.421ZM163.906 132.702L163.724 127.342L164.683 127.342L164.854 132.702L163.906 132.702ZM163.552 121.973L163.381 116.623L164.329 116.623L164.511 121.983L163.552 121.973ZM163.199 111.264L163.027 105.904L163.986 105.904L164.158 111.264L163.199 111.264Z" fill="#3F81FE"/>
<path d="M162.814 100.535L162.703 97.1743L166.064 97.1744L166.064 98.1332L163.692 98.1332L163.763 100.505L162.814 100.535Z" fill="#3F81FE"/>
<path d="M241.109 98.1332L235.749 98.1331L235.749 97.1746L241.109 97.1747L241.109 98.1332ZM230.389 98.1331L225.029 98.1331L225.029 97.1746L230.389 97.1746L230.389 98.1331ZM219.669 98.1331L214.309 98.133L214.309 97.1745L219.669 97.1746L219.669 98.1331ZM208.949 98.133L203.589 98.133L203.589 97.1745L208.949 97.1745L208.949 98.133ZM198.229 98.133L192.869 98.1329L192.869 97.1744L198.229 97.1745L198.229 98.133ZM187.509 98.1329L182.15 98.1329L182.15 97.1744L187.509 97.1744L187.509 98.1329ZM176.79 98.1328L171.43 98.1328L171.43 97.1743L176.79 97.1743L176.79 98.1328Z" fill="#3F81FE"/>
<path d="M248.942 100.535L248.861 98.1332L246.459 98.1332L246.459 97.1743L249.79 97.1744L249.901 100.505L248.942 100.535Z" fill="#3F81FE"/>
<path d="M251.397 175.568L251.225 170.208L252.174 170.208L252.355 175.568L251.397 175.568ZM251.094 164.849L250.922 159.489L251.881 159.489L252.053 164.849L251.094 164.849ZM250.751 154.14L250.569 148.78L251.528 148.78L251.699 154.14L250.751 154.14ZM250.397 143.421L250.226 138.061L251.174 138.061L251.356 143.421L250.397 143.421ZM250.044 132.702L249.872 127.342L250.831 127.342L251.003 132.702L250.044 132.702ZM249.701 121.983L249.519 116.623L250.528 116.623L250.7 121.983L249.701 121.983ZM249.347 111.264L249.176 105.904L250.124 105.904L250.306 111.264L249.347 111.264Z" fill="#3F81FE"/>
</g>
<path d="M226.686 154.369L191.448 154.369C188.18 154.343 185.047 153.06 182.7 150.786C180.352 148.512 178.97 145.422 178.841 142.156C178.725 139.222 179.707 136.351 181.593 134.1C183.48 131.85 186.136 130.383 189.045 129.984C189.808 127.068 191.517 124.488 193.905 122.648C196.292 120.809 199.224 119.814 202.238 119.821C204.719 119.825 207.157 120.467 209.318 121.687C211.478 122.907 213.288 124.663 214.573 126.785C215.681 126.442 216.834 126.268 217.994 126.27C221 126.299 223.892 127.426 226.123 129.44C228.355 131.454 229.772 134.214 230.107 137.201C231.647 137.936 232.958 139.076 233.9 140.498C234.842 141.92 235.381 143.572 235.457 145.276C235.504 146.455 235.311 147.631 234.89 148.733C234.47 149.836 233.831 150.841 233.011 151.69C232.192 152.539 231.209 153.213 230.122 153.672C229.035 154.13 227.866 154.364 226.686 154.359L226.686 154.369ZM202.238 122.172C199.619 122.157 197.076 123.055 195.049 124.714C193.022 126.372 191.638 128.686 191.135 131.256L190.963 132.154L190.055 132.215C187.581 132.366 185.266 133.479 183.604 135.317C181.942 137.154 181.065 139.569 181.162 142.045C181.266 144.702 182.39 147.216 184.3 149.066C186.21 150.915 188.759 151.958 191.418 151.977L226.656 151.977C227.519 151.985 228.374 151.817 229.171 151.484C229.967 151.15 230.687 150.659 231.288 150.039C231.888 149.418 232.356 148.683 232.663 147.876C232.971 147.069 233.111 146.209 233.075 145.346C233.011 143.974 232.548 142.651 231.743 141.537C230.938 140.424 229.826 139.57 228.543 139.079L227.816 138.796L227.816 138.019C227.688 135.492 226.6 133.11 224.775 131.358C222.949 129.606 220.524 128.617 217.995 128.592C216.79 128.589 215.597 128.822 214.482 129.278L213.472 129.682L212.978 128.733C211.958 126.764 210.417 125.113 208.523 123.96C206.629 122.807 204.455 122.195 202.238 122.193L202.238 122.172Z" fill="#B0CBFF"/>
<path d="M216.534 142.945L206.814 133.528L197.709 142.945L203.039 142.945L203.362 152.675L211.528 152.675L211.205 142.945L216.534 142.945Z" fill="#B2CCFF"/>
<path d="M192.095 132.64C194.161 133.84 194.861 136.488 193.66 138.553L153.698 207.207C152.498 209.269 149.852 209.969 147.789 208.77L90.7502 175.624C88.6846 174.424 87.984 171.776 89.1858 169.711L122.633 112.249C123.249 111.191 124.285 110.444 125.483 110.193L144.425 106.222C145.471 106.003 146.561 106.179 147.485 106.715L192.095 132.64Z" fill="#DCE7FF"/>
<path d="M123.389 124.573L173.91 153.934L175.086 151.917L124.566 122.557L123.389 124.573Z" fill="white" fill-opacity="0.53"/>
<path d="M143.28 126.016L178.328 146.444L179.502 144.425L144.454 123.997L143.28 126.016Z" fill="white" fill-opacity="0.53"/>
<path d="M119.468 131.375L169.988 160.735L171.165 158.718L120.644 129.358L119.468 131.375Z" fill="white" fill-opacity="0.53"/>
<path d="M114.493 139.984L165.013 169.344L166.189 167.327L115.669 137.967L114.493 139.984Z" fill="white" fill-opacity="0.53"/>
<path d="M110.573 146.785L161.092 176.144L162.269 174.128L111.749 144.768L110.573 146.785Z" fill="white" fill-opacity="0.53"/>
<path d="M105.858 154.942L156.378 184.302L157.554 182.285L107.035 152.925L105.858 154.942Z" fill="white" fill-opacity="0.53"/>
<path d="M101.936 161.737L152.456 191.096L153.632 189.08L103.112 159.719L101.936 161.737Z" fill="white" fill-opacity="0.53"/>
<path d="M123.599 110.59L146.048 105.884L138.327 119.149L123.599 110.59Z" fill="#9BB9FF"/>
</g>
<defs>
<filter id="filter0_ddd_1876_6459" x="83.1008" y="62.0963" width="241.846" height="169.282" filterUnits="userSpaceOnUse" color-interpolation-filters="sRGB">
<feFlood flood-opacity="0" result="BackgroundImageFix"/>
<feColorMatrix in="SourceAlpha" type="matrix" values="0 0 0 0 0 0 0 0 0 0 0 0 0 0 0 0 0 0 127 0" result="hardAlpha"/>
<feOffset dy="1.37445"/>
<feGaussianBlur stdDeviation="1.37445"/>
<feColorMatrix type="matrix" values="0 0 0 0 0 0 0 0 0 0 0 0 0 0 0 0 0 0 0.02 0"/>
<feBlend mode="normal" in2="BackgroundImageFix" result="effect1_dropShadow_1876_6459"/>
<feColorMatrix in="SourceAlpha" type="matrix" values="0 0 0 0 0 0 0 0 0 0 0 0 0 0 0 0 0 0 127 0" result="hardAlpha"/>
<feOffset dx="1.37445" dy="5.49781"/>
<feGaussianBlur stdDeviation="2.7489"/>
<feColorMatrix type="matrix" values="0 0 0 0 0 0 0 0 0 0 0 0 0 0 0 0 0 0 0.02 0"/>
<feBlend mode="normal" in2="effect1_dropShadow_1876_6459" result="effect2_dropShadow_1876_6459"/>
<feColorMatrix in="SourceAlpha" type="matrix" values="0 0 0 0 0 0 0 0 0 0 0 0 0 0 0 0 0 0 127 0" result="hardAlpha"/>
<feOffset dx="2.7489" dy="12.3701"/>
<feGaussianBlur stdDeviation="4.12335"/>
<feColorMatrix type="matrix" values="0 0 0 0 0 0 0 0 0 0 0 0 0 0 0 0 0 0 0.01 0"/>
<feBlend mode="normal" in2="effect2_dropShadow_1876_6459" result="effect3_dropShadow_1876_6459"/>
<feBlend mode="normal" in="SourceGraphic" in2="effect3_dropShadow_1876_6459" result="shape"/>
</filter>
</defs>
</svg>
